<svg xmlns="http://www.w3.org/2000/svg" width="265.358" height="263.921" viewBox="0 0 265.358 263.921"><g transform="translate(-783.459 -232.687)"><rect width="13.632" height="1.65" transform="matrix(-0.669, -0.743, 0.743, -0.669, 1001.993, 461.712)" fill="#d9a75f"/><rect width="1.65" height="14.504" transform="translate(952.171 253.664) rotate(-161.998)" fill="#d9a75f"/><rect width="1.65" height="14.776" transform="matrix(-0.208, -0.978, 0.978, -0.208, 788.595, 392.06)" fill="#d9a75f"/><path d="M309.561,18.854a5.848,5.848,0,0,0,3.075-1.682,7.123,7.123,0,0,0,1.724-3.365,7.118,7.118,0,0,0-.026-3.791,5.863,5.863,0,0,0-1.995-2.873,9.446,9.446,0,0,0-3.8-1.736L304.8,4.519l-3.153,13.293,3.738.886a9.459,9.459,0,0,0,4.175.155m-3.15-11.939,1.965.467a5.753,5.753,0,0,1,2.5,1.214,4.36,4.36,0,0,1,1.343,2.057,5.044,5.044,0,0,1,.022,2.651,5.028,5.028,0,0,1-1.209,2.349,4.331,4.331,0,0,1-2.127,1.246,5.731,5.731,0,0,1-2.778-.038l-1.966-.467Z" transform="matrix(-0.208, -0.978, 0.978, -0.208, 844.448, 665.615)" fill="#d9a75f"/><path d="M338.919,23.834l1.695.668a9.41,9.41,0,0,0,1.344.424l.273,5.3,2.117.835-.441-6.006a3.975,3.975,0,0,0,2.056-.816,4.352,4.352,0,0,0,1.349-1.885,4.079,4.079,0,0,0-.077-3.584,5.913,5.913,0,0,0-3.218-2.525l-3.795-1.5-5.011,12.71,1.97.777Zm2.564-6.5,1.64.647q3.1,1.219,2.165,3.577-.924,2.34-4.017,1.119l-1.64-.645Z" transform="matrix(-0.208, -0.978, 0.978, -0.208, 842.946, 682.958)" fill="#d9a75f"/><rect width="13.662" height="2.119" transform="translate(803.226 334.048) rotate(-164.417)" fill="#d9a75f"/><path d="M380.932,50.64l5.445-8.1,2.07,7-2.85,4.24,1.743,1.171,7.621-11.337-1.741-1.172L389.9,47.384l-2.82-9.363-.148-.1-7.754,11.535Z" transform="matrix(-0.208, -0.978, 0.978, -0.208, 836.235, 706.683)" fill="#d9a75f"/><path d="M407.475,71.352l4.465-4.984-.263,8.75,1.991,1.783.183-9.166,8.845-1.088L420.75,64.9l-8.625,1.258,4.467-4.985-1.579-1.413L405.9,69.938Z" transform="matrix(-0.208, -0.978, 0.978, -0.208, 828.393, 721.903)" fill="#d9a75f"/><path d="M443.474,108.408l9.361-7.021,2.413,3.215,1.568-1.177-6.083-8.11-1.568,1.177,2.412,3.215-9.36,7.022Z" transform="matrix(-0.208, -0.978, 0.978, -0.208, 814.886, 743.195)" fill="#d9a75f"/><path d="M459.885,130.111a6.609,6.609,0,0,0-.993,3.466,8.267,8.267,0,0,0,3.616,6.62,6.562,6.562,0,0,0,3.45,1.026,8.007,8.007,0,0,0,6.541-3.574,6.564,6.564,0,0,0,.99-3.453,8.262,8.262,0,0,0-3.616-6.619,6.638,6.638,0,0,0-3.445-1.04,7.936,7.936,0,0,0-6.542,3.574m6.533-1.4a4.687,4.687,0,0,1,2.454.712,5.631,5.631,0,0,1,2.524,4.622,4.627,4.627,0,0,1-.73,2.441,5.921,5.921,0,0,1-4.708,2.573,4.636,4.636,0,0,1-2.45-.7,5.634,5.634,0,0,1-2.525-4.622,4.707,4.707,0,0,1,.726-2.449,5.827,5.827,0,0,1,4.709-2.572" transform="matrix(-0.208, -0.978, 0.978, -0.208, 801.455, 754.509)" fill="#d9a75f"/><path d="M477.494,167.371a6.7,6.7,0,0,0-1.559,3.259,7.587,7.587,0,0,0,.355,3.857,7.194,7.194,0,0,0,1.956,3.1,5.7,5.7,0,0,0,3.019,1.41,7.868,7.868,0,0,0,3.755-.434c.188-.063.361-.127.521-.189s.319-.128.477-.2l-2.385-6.927-1.76.606,1.663,4.831-.038.013a3.991,3.991,0,0,1-2.2.16,3.875,3.875,0,0,1-1.866-1.012,4.948,4.948,0,0,1-1.237-2.013,5.156,5.156,0,0,1-.231-2.705,4.768,4.768,0,0,1,1.136-2.3,5.325,5.325,0,0,1,2.3-1.485,5.138,5.138,0,0,1,2.79-.227,4.741,4.741,0,0,1,2.329,1.26,6.318,6.318,0,0,1,1.561,2.553,8.225,8.225,0,0,1,.478,3.458l1.853-.639a6.039,6.039,0,0,0,0-1.653,9.165,9.165,0,0,0-.438-1.879,8.6,8.6,0,0,0-2.163-3.517,6.615,6.615,0,0,0-3.245-1.731,7.184,7.184,0,0,0-3.87.317,7.293,7.293,0,0,0-3.207,2.088" transform="matrix(-0.208, -0.978, 0.978, -0.208, 784.619, 766.677)" fill="#d9a75f"/><path d="M485.966,214.388l1.928-.357-1.29-6.951,2.783-.516,1.077,5.8,1.927-.359-1.077-5.8,4.866-.9.937,5.042,1.927-.358-1.323-7.125-13.433,2.495Z" transform="matrix(-0.208, -0.978, 0.978, -0.208, 767.036, 774.706)" fill="#d9a75f"/><path d="M500.811,236.75l-11.681.694.125,2.095,11.681-.693.238,4.012,1.957-.116-.6-10.12-1.956.116Z" transform="matrix(-0.208, -0.978, 0.978, -0.208, 753.093, 780.125)" fill="#d9a75f"/><path d="M488.9,267.64l5.039.311-.347,5.612-5.039-.311-.13,2.095,13.637.841.128-2.095-6.62-.408.346-5.613,6.62.409.13-2.115-13.636-.84Z" transform="matrix(-0.208, -0.978, 0.978, -0.208, 737.053, 783.176)" fill="#d9a75f"/><path d="M482.564,307.258l1.917.406,1.461-6.917,2.769.585-1.219,5.773,1.918.4,1.219-5.772,4.843,1.023-1.06,5.017,1.918.406,1.5-7.091-13.367-2.822Z" transform="matrix(-0.208, -0.978, 0.978, -0.208, 720.558, 783.711)" fill="#d9a75f"/><path d="M475.413,329.249l4.46,1.578-.606,1.717a9.38,9.38,0,0,0-.376,1.358l-5.288.461-.759,2.147,5.985-.654a3.992,3.992,0,0,0,.889,2.026,4.367,4.367,0,0,0,1.932,1.282,4.092,4.092,0,0,0,3.579-.2,5.922,5.922,0,0,0,2.408-3.306l1.36-3.845-12.879-4.557Zm5.7,3.886.588-1.662,4.761,1.685-.588,1.661q-1.11,3.136-3.5,2.291-2.371-.84-1.261-3.975" transform="matrix(-0.208, -0.978, 0.978, -0.208, 705.49, 781.983)" fill="#d9a75f"/><path d="M22.093,316.156l-1.874.574,2.07,6.758-2.708.83-1.727-5.642-1.876.574,1.729,5.642-4.732,1.45-1.5-4.9-1.875.574,2.123,6.929,13.062-4Z" transform="matrix(-0.208, -0.978, 0.978, -0.208, 663.092, 556.033)" fill="#d9a75f"/><path d="M16.327,286.872l-2.742-.93-.909-6.749,2.406-1.563-.317-2.354L1.893,283.982l.028.2,14.716,4.99Zm-10.3-3.328,4.868-3.173.661,4.905Z" transform="matrix(-0.208, -0.978, 0.978, -0.208, 682.136, 548.078)" fill="#d9a75f"/><path d="M2.025,250.368l11.7.188.034-2.1-11.7-.188.064-4.019-1.959-.031L0,254.355l1.961.031Z" transform="matrix(-0.208, -0.978, 0.978, -0.208, 697.012, 543.956)" fill="#d9a75f"/><path d="M8.494,191.532l11.344,2.878.515-2.034L9.011,189.5,10,185.6l-1.9-.482-2.493,9.826,1.9.482Z" transform="matrix(-0.208, -0.978, 0.978, -0.208, 726.27, 540.58)" fill="#d9a75f"/><path d="M21.048,157.49a7.933,7.933,0,0,0,6.834,2.978,6.609,6.609,0,0,0,3.348-1.338,8.274,8.274,0,0,0,3.015-6.916,6.555,6.555,0,0,0-1.3-3.353,7.995,7.995,0,0,0-6.834-2.978,6.549,6.549,0,0,0-3.335,1.333,8.264,8.264,0,0,0-3.014,6.915,6.635,6.635,0,0,0,1.289,3.36m1.235-6.375a5.222,5.222,0,0,1,1.652-2.153,4.627,4.627,0,0,1,2.377-.919,5.915,5.915,0,0,1,4.917,2.143,4.615,4.615,0,0,1,.944,2.367,5.618,5.618,0,0,1-2.1,4.827,4.7,4.7,0,0,1-2.381.929,5.833,5.833,0,0,1-4.918-2.145,4.711,4.711,0,0,1-.943-2.375,5.246,5.246,0,0,1,.454-2.676" transform="matrix(-0.208, -0.978, 0.978, -0.208, 746.786, 543.382)" fill="#d9a75f"/><path d="M45.46,118.964a7.31,7.31,0,0,0,3.593,1.321,6.694,6.694,0,0,0,3.543-.7,7.549,7.549,0,0,0,2.88-2.591,7.187,7.187,0,0,0,1.311-3.419,5.711,5.711,0,0,0-.676-3.263,7.863,7.863,0,0,0-2.594-2.75c-.164-.112-.318-.214-.464-.3s-.292-.179-.441-.265l-4.125,6.056,1.538,1.047,2.876-4.221c.011.007.022.015.033.023a3.976,3.976,0,0,1,1.441,1.663,3.861,3.861,0,0,1,.306,2.1,4.969,4.969,0,0,1-.873,2.2,5.171,5.171,0,0,1-2.031,1.8,4.777,4.777,0,0,1-2.52.464,5.326,5.326,0,0,1-2.569-.96,5.134,5.134,0,0,1-1.851-2.1,4.742,4.742,0,0,1-.383-2.621,6.323,6.323,0,0,1,1.114-2.776,8.211,8.211,0,0,1,2.483-2.452l-1.618-1.1a5.993,5.993,0,0,0-1.323.992,9.233,9.233,0,0,0-1.245,1.475,8.627,8.627,0,0,0-1.524,3.837,6.635,6.635,0,0,0,.554,3.637,7.184,7.184,0,0,0,2.567,2.911" transform="matrix(-0.208, -0.978, 0.978, -0.208, 768.394, 550.23)" fill="#d9a75f"/><path d="M82.69,82.91l-1.414-1.358-4.9,5.1-2.042-1.962,4.087-4.255-1.414-1.358L72.925,83.33,69.355,79.9l3.552-3.7-1.414-1.358-5.02,5.226,9.853,9.464Z" transform="matrix(-0.208, -0.978, 0.978, -0.208, 786.063, 558.743)" fill="#d9a75f"/><path d="M96.079,53.658l7.188,9.235,1.655-1.289-7.186-9.234,3.172-2.468-1.2-1.548-8,6.226,1.2,1.546Z" transform="matrix(-0.208, -0.978, 0.978, -0.208, 801.521, 568.255)" fill="#d9a75f"/><path d="M132.713,43.585l-2.453-4.412,4.914-2.733,2.454,4.413,1.834-1.02-6.637-11.941-1.834,1.02,3.222,5.8L129.3,37.441l-3.222-5.8-1.852,1.029,6.638,11.941Z" transform="matrix(-0.208, -0.978, 0.978, -0.208, 814.805, 581.925)" fill="#d9a75f"/><path d="M174.7,25.95l-.682-1.839-6.629,2.453-.983-2.655,5.533-2.048-.68-1.839-5.534,2.048-1.719-4.642,4.811-1.779-.68-1.839-6.8,2.516,4.742,12.812Z" transform="matrix(-0.208, -0.978, 0.978, -0.208, 825.467, 598.484)" fill="#d9a75f"/><path d="M202.675,18.959l-.957-4.635,1.786-.368a9.283,9.283,0,0,0,1.356-.381l3.129,4.288,2.23-.461-3.656-4.786a3.98,3.98,0,0,0,1.275-1.809,4.368,4.368,0,0,0,.1-2.314,4.089,4.089,0,0,0-2.026-2.959,5.915,5.915,0,0,0-4.075-.352l-4,.825L200.6,19.387Zm-.643-11.835q3.258-.674,3.771,1.809.507,2.462-2.75,3.136l-1.727.356-1.02-4.945Z" transform="matrix(-0.208, -0.978, 0.978, -0.208, 833.511, 615.287)" fill="#d9a75f"/><path d="M71.225,411.342,56.23,415.42l1.538,1.732,2.794-.76,4.524,5.092-1.123,2.641,1.578,1.776,5.815-14.41Zm-5.32,8.171-3.289-3.7,5.554-1.65Z" transform="matrix(-0.208, -0.978, 0.978, -0.208, 621.71, 588.482)" fill="#d9a75f"/><path d="M94.285,429.432,85.448,439.85l6.628,5.622,1.267-1.495-5.014-4.252L95.9,430.8Z" transform="matrix(-0.208, -0.978, 0.978, -0.208, 615.944, 604.526)" fill="#d9a75f"/><path d="M118.135,447.4l-7.471,11.439,7.275,4.754,1.073-1.641-5.5-3.595,6.4-9.8Z" transform="matrix(-0.208, -0.978, 0.978, -0.208, 609.824, 618.617)" fill="#d9a75f"/><path d="M166.515,473.226A9.458,9.458,0,0,0,163,470.972l-3.576-1.4-4.992,12.718,3.575,1.4a9.435,9.435,0,0,0,4.112.742A5.856,5.856,0,0,0,165.4,483.2a7.96,7.96,0,0,0,2.688-6.847,5.87,5.87,0,0,0-1.57-3.126m-.964,6.087a5.047,5.047,0,0,1-1.526,2.157,4.353,4.353,0,0,1-2.282.933,5.764,5.764,0,0,1-2.746-.429l-1.879-.738,3.559-9.069,1.881.738a5.753,5.753,0,0,1,2.3,1.553,4.362,4.362,0,0,1,1.041,2.227,5.032,5.032,0,0,1-.351,2.627" transform="matrix(-0.208, -0.978, 0.978, -0.208, 603.583, 642.143)" fill="#d9a75f"/><path d="M196.334,482.856l-9.893,11.984,2.256.527,1.843-2.233,6.632,1.548.607,2.8,2.314.54L196.526,482.9Zm-4.451,8.618,3.585-4.55L196.7,492.6Z" transform="matrix(-0.208, -0.978, 0.978, -0.208, 600.437, 659.048)" fill="#d9a75f"/><path d="M230.036,493.247l-3.02-5.8-2.543-.246,4.286,7.933-.593,6.149,2.089.2.594-6.149,5.43-6.995-2.405-.232Z" transform="matrix(-0.208, -0.978, 0.978, -0.208, 602.252, 677.952)" fill="#d9a75f"/><path d="M286.921,495.441l-.291-2.538-.138.015-2.214,3.123a16.531,16.531,0,0,0-1.525-1.749,10.58,10.58,0,0,0-1.525-1.23,3.079,3.079,0,0,0,.986-1.219,2.862,2.862,0,0,0,.251-1.553,2.983,2.983,0,0,0-.639-1.581,3.252,3.252,0,0,0-1.357-.981,3.8,3.8,0,0,0-1.847-.207,3.9,3.9,0,0,0-1.744.608,3.184,3.184,0,0,0-1.113,1.242,2.876,2.876,0,0,0-.272,1.637,2.764,2.764,0,0,0,.533,1.353,2.444,2.444,0,0,0,1.075.854,4.781,4.781,0,0,0-1.8,1.9,4.44,4.44,0,0,0-.458,2.623,4.59,4.59,0,0,0,.845,2.246,4.144,4.144,0,0,0,1.793,1.4,4.866,4.866,0,0,0,2.436.3,5.293,5.293,0,0,0,2.315-.843,6.454,6.454,0,0,0,1.842-1.844l1.321,1.8,2.047-.234-2.1-3.047Zm-9.088-5.5a1.507,1.507,0,0,1,2.105-.241,1.531,1.531,0,0,1,.232,2.115,1.469,1.469,0,0,1-2.084.247,1.442,1.442,0,0,1-.554-1.012,1.468,1.468,0,0,1,.3-1.11m3.792,9.032a3.5,3.5,0,0,1-1.692.711,2.565,2.565,0,0,1-2.014-.537,2.7,2.7,0,0,1-.95-1.855,3.014,3.014,0,0,1,.479-2.078,3.438,3.438,0,0,1,1.761-1.326,8.49,8.49,0,0,1,1.874,1.391,17.563,17.563,0,0,1,1.862,2.167,4.6,4.6,0,0,1-1.321,1.527" transform="matrix(-0.208, -0.978, 0.978, -0.208, 607.304, 702.411)" fill="#d9a75f"/><path d="M330.562,474.707l1.909,5.645-9.15-3.448-.168.057,4.451,13.167,2.007-.679-3.127-9.247,6.817,2.608,1.636,4.839,1.988-.673-4.375-12.941Z" transform="matrix(-0.208, -0.978, 0.978, -0.208, 618.818, 724.481)" fill="#d9a75f"/><rect width="2.119" height="13.662" transform="matrix(-0.602, -0.799, 0.799, -0.602, 1009.293, 294.968)" fill="#d9a75f"/><path d="M387.623,454.461c-.106-.168-.206-.323-.3-.465s-.2-.282-.3-.42l-6.211,3.883.987,1.579,4.33-2.708.021.034a3.987,3.987,0,0,1,.65,2.1,3.872,3.872,0,0,1-.565,2.046,4.975,4.975,0,0,1-1.683,1.659,5.161,5.161,0,0,1-2.584.835,4.786,4.786,0,0,1-2.494-.59,5.323,5.323,0,0,1-1.966-1.911,5.152,5.152,0,0,1-.851-2.669,4.741,4.741,0,0,1,.7-2.552,6.327,6.327,0,0,1,2.135-2.095,8.225,8.225,0,0,1,3.262-1.246l-1.039-1.662a6.078,6.078,0,0,0-1.61.376,9.228,9.228,0,0,0-1.733.851,8.622,8.622,0,0,0-2.939,2.9,6.639,6.639,0,0,0-.955,3.551,7.189,7.189,0,0,0,1.18,3.7,7.292,7.292,0,0,0,2.758,2.655,6.679,6.679,0,0,0,3.527.783,7.557,7.557,0,0,0,3.678-1.213,7.2,7.2,0,0,0,2.575-2.6,5.714,5.714,0,0,0,.693-3.26,7.88,7.88,0,0,0-1.269-3.561" transform="matrix(-0.208, -0.978, 0.978, -0.208, 635.64, 746.939)" fill="#d9a75f"/><path d="M408.378,427.919l4.343,5.013-4.251,3.682-4.342-5.013-1.6,1.387,8.944,10.325,1.6-1.387-3.306-3.816,4.25-3.682,3.306,3.816,1.586-1.375-8.945-10.325Z" transform="matrix(-0.208, -0.978, 0.978, -0.208, 650.053, 758.102)" fill="#d9a75f"/><path d="M433.628,404.614l-1.473-1.292-6.688,7.62,1.474,1.292,2.651-3.021,8.8,7.718,1.384-1.578-8.8-7.718Z" transform="matrix(-0.208, -0.978, 0.978, -0.208, 663.688, 766.839)" fill="#d9a75f"/></g></svg>