<?xml version="1.0" encoding="UTF-8"?>
<svg id="Layer_1" data-name="Layer 1" xmlns="http://www.w3.org/2000/svg" viewBox="0 0 1873 30">
  <defs>
    <style>
      .gdp {
        fill: #325a51;
      }
    </style>
  </defs>
  <path id="Path_499" data-name="Path 499" class="gdp" d="m1645.43,28.66c-1.66,0-3-1.34-3-3s1.34-3,3-3,3,1.34,3,3-1.34,3-3,3Z"/>
  <path id="Path_500" data-name="Path 500" class="gdp" d="m1645.43,18c-1.66,0-3-1.34-3-3s1.34-3,3-3,3,1.34,3,3-1.34,3-3,3Z"/>
  <path id="Path_501" data-name="Path 501" class="gdp" d="m1645.43,7.34c-1.66,0-3-1.34-3-3s1.34-3,3-3,3,1.34,3,3-1.34,3-3,3Z"/>
  <path id="Path_502" data-name="Path 502" class="gdp" d="m1656.11,23.33c-1.66,0-3-1.34-3-3s1.34-3,3-3,3,1.34,3,3-1.34,3-3,3Z"/>
  <path id="Path_503" data-name="Path 503" class="gdp" d="m1656.11,12.67c-1.66,0-3-1.34-3-3s1.34-3,3-3h0c1.66,0,3,1.34,3,3h0c0,1.66-1.34,3-3,3Z"/>
  <path id="Path_504" data-name="Path 504" class="gdp" d="m1666.6,28.66c-1.66,0-3-1.34-3-3s1.34-3,3-3,3,1.34,3,3-1.34,3-3,3Z"/>
  <path id="Path_505" data-name="Path 505" class="gdp" d="m1666.6,18c-1.66,0-3-1.34-3-3s1.34-3,3-3,3,1.34,3,3-1.34,3-3,3Z"/>
  <path id="Path_506" data-name="Path 506" class="gdp" d="m1666.6,7.34c-1.66,0-3-1.34-3-3s1.34-3,3-3,3,1.34,3,3-1.34,3-3,3Z"/>
  <path id="Path_507" data-name="Path 507" class="gdp" d="m1677.27,23.33c-1.66,0-3-1.34-3-3h0c0-1.66,1.35-3,3-3,1.66,0,3,1.34,3,3s-1.34,3-3,3Z"/>
  <path id="Path_508" data-name="Path 508" class="gdp" d="m1677.27,12.67c-1.66,0-3-1.34-3-3,0-1.66,1.35-3,3-3,1.66,0,3,1.34,3,3h0c0,1.66-1.34,3-3,3Z"/>
  <path id="Path_509" data-name="Path 509" class="gdp" d="m1687.77,28.66c-1.66,0-3-1.34-3-3s1.34-3,3-3,3,1.34,3,3-1.34,3-3,3Z"/>
  <path id="Path_510" data-name="Path 510" class="gdp" d="m1687.77,18c-1.66,0-3-1.34-3-3s1.34-3,3-3,3,1.34,3,3-1.34,3-3,3Z"/>
  <path id="Path_511" data-name="Path 511" class="gdp" d="m1687.77,7.34c-1.66,0-3-1.34-3-3s1.34-3,3-3,3,1.34,3,3-1.34,3-3,3Z"/>
  <path id="Path_512" data-name="Path 512" class="gdp" d="m1698.44,23.33c-1.66,0-3-1.34-3-3s1.34-3,3-3,3,1.34,3,3-1.34,3-3,3Z"/>
  <path id="Path_513" data-name="Path 513" class="gdp" d="m1698.44,12.67c-1.66,0-3-1.34-3-3s1.34-3,3-3h0c1.66,0,3,1.34,3,3h0c0,1.66-1.34,3-3,3Z"/>
  <path id="Path_514" data-name="Path 514" class="gdp" d="m1708.95,28.66c-1.66,0-3-1.34-3-3s1.34-3,3-3,3,1.34,3,3-1.34,3-3,3Z"/>
  <path id="Path_515" data-name="Path 515" class="gdp" d="m1708.95,18c-1.66,0-3-1.34-3-3s1.34-3,3-3,3,1.34,3,3-1.34,3-3,3Z"/>
  <path id="Path_516" data-name="Path 516" class="gdp" d="m1708.95,7.34c-1.66,0-3-1.34-3-3s1.34-3,3-3,3,1.34,3,3-1.34,3-3,3Z"/>
  <path id="Path_517" data-name="Path 517" class="gdp" d="m1719.61,23.33c-1.66,0-3-1.34-3-3s1.34-3,3-3,3,1.34,3,3-1.34,3-3,3Z"/>
  <path id="Path_518" data-name="Path 518" class="gdp" d="m1719.61,12.67c-1.66,0-3-1.34-3-3s1.34-3,3-3h0c1.66,0,3,1.34,3,3h0c0,1.66-1.34,3-3,3Z"/>
  <path id="Path_519" data-name="Path 519" class="gdp" d="m1730.11,28.66c-1.66,0-3-1.34-3-3s1.34-3,3-3,3,1.34,3,3-1.34,3-3,3Z"/>
  <path id="Path_520" data-name="Path 520" class="gdp" d="m1730.11,18c-1.66,0-3-1.34-3-3s1.34-3,3-3,3,1.34,3,3c0,1.66-1.34,3-3,3Z"/>
  <path id="Path_521" data-name="Path 521" class="gdp" d="m1730.11,7.34c-1.66,0-3-1.34-3-3s1.34-3,3-3c1.66,0,3,1.34,3,3,0,1.66-1.34,3-3,3Z"/>
  <path id="Path_522" data-name="Path 522" class="gdp" d="m1740.78,23.33c-1.66,0-3-1.34-3-3s1.34-3,3-3,3,1.34,3,3-1.34,3-3,3Z"/>
  <path id="Path_523" data-name="Path 523" class="gdp" d="m1740.78,12.67c-1.66,0-3-1.34-3-3s1.34-3,3-3h0c1.66,0,3,1.34,3,3h0c0,1.66-1.34,3-3,3Z"/>
  <path id="Path_524" data-name="Path 524" class="gdp" d="m1751.29,28.66c-1.66,0-3-1.34-3-3s1.34-3,3-3,3,1.34,3,3-1.34,3-3,3Z"/>
  <path id="Path_525" data-name="Path 525" class="gdp" d="m1751.29,18c-1.66,0-3-1.34-3-3s1.34-3,3-3,3,1.34,3,3-1.34,3-3,3Z"/>
  <path id="Path_526" data-name="Path 526" class="gdp" d="m1751.29,7.34c-1.66,0-3-1.34-3-3s1.34-3,3-3,3,1.34,3,3-1.34,3-3,3Z"/>
  <path id="Path_527" data-name="Path 527" class="gdp" d="m1761.95,23.33c-1.66,0-3-1.34-3-3s1.34-3,3-3,3,1.34,3,3-1.34,3-3,3Z"/>
  <path id="Path_528" data-name="Path 528" class="gdp" d="m1761.95,12.67c-1.66,0-3-1.34-3-3s1.34-3,3-3h0c1.66,0,3,1.34,3,3h0c0,1.66-1.34,3-3,3Z"/>
  <path id="Path_529" data-name="Path 529" class="gdp" d="m1772.45,28.66c-1.66,0-3-1.34-3-3s1.34-3,3-3,3,1.34,3,3-1.34,3-3,3Z"/>
  <path id="Path_530" data-name="Path 530" class="gdp" d="m1772.45,18c-1.66,0-3-1.34-3-3s1.34-3,3-3,3,1.34,3,3-1.34,3-3,3Z"/>
  <path id="Path_531" data-name="Path 531" class="gdp" d="m1772.45,7.34c-1.66,0-3-1.34-3-3s1.34-3,3-3,3,1.34,3,3-1.34,3-3,3Z"/>
  <path id="Path_532" data-name="Path 532" class="gdp" d="m1783.12,23.33c-1.66,0-3-1.34-3-3s1.34-3,3-3,3,1.34,3,3-1.34,3-3,3Z"/>
  <path id="Path_533" data-name="Path 533" class="gdp" d="m1783.12,12.67c-1.66,0-3-1.34-3-3s1.34-3,3-3h0c1.66,0,3,1.34,3,3h0c0,1.66-1.34,3-3,3Z"/>
  <path id="Path_534" data-name="Path 534" class="gdp" d="m1793.62,28.66c-1.66,0-3-1.34-3-3s1.34-3,3-3,3,1.34,3,3-1.34,3-3,3Z"/>
  <path id="Path_535" data-name="Path 535" class="gdp" d="m1793.62,18c-1.66,0-3-1.34-3-3s1.34-3,3-3,3,1.34,3,3-1.34,3-3,3Z"/>
  <path id="Path_536" data-name="Path 536" class="gdp" d="m1793.62,7.34c-1.66,0-3-1.34-3-3s1.34-3,3-3,3,1.34,3,3-1.34,3-3,3Z"/>
  <path id="Path_537" data-name="Path 537" class="gdp" d="m1804.29,23.33c-1.66,0-3-1.34-3-3s1.34-3,3-3c1.66,0,3,1.34,3,3,0,1.66-1.34,3-3,3Z"/>
  <path id="Path_538" data-name="Path 538" class="gdp" d="m1804.29,12.67c-1.66,0-3-1.34-3-3s1.34-3,3-3h0c1.66,0,3,1.34,3,3,0,1.66-1.34,3-3,3Z"/>
  <path id="Path_539" data-name="Path 539" class="gdp" d="m1814.79,28.66c-1.66,0-3-1.34-3-3s1.34-3,3-3,3,1.34,3,3-1.34,3-3,3Z"/>
  <path id="Path_540" data-name="Path 540" class="gdp" d="m1814.79,18c-1.66,0-3-1.34-3-3s1.34-3,3-3,3,1.34,3,3-1.34,3-3,3Z"/>
  <path id="Path_541" data-name="Path 541" class="gdp" d="m1814.79,7.34c-1.66,0-3-1.34-3-3s1.34-3,3-3,3,1.34,3,3-1.34,3-3,3Z"/>
  <path id="Path_542" data-name="Path 542" class="gdp" d="m1825.46,23.33c-1.66,0-3-1.34-3-3s1.34-3,3-3c1.66,0,3,1.34,3,3,0,1.66-1.34,3-3,3Z"/>
  <path id="Path_543" data-name="Path 543" class="gdp" d="m1825.46,12.67c-1.66,0-3-1.34-3-3s1.34-3,3-3h0c1.66,0,3,1.34,3,3,0,1.66-1.34,3-3,3Z"/>
  <path id="Path_544" data-name="Path 544" class="gdp" d="m1835.96,28.66c-1.66,0-3-1.34-3-3s1.34-3,3-3,3,1.34,3,3-1.34,3-3,3Z"/>
  <path id="Path_545" data-name="Path 545" class="gdp" d="m1835.96,18c-1.66,0-3-1.34-3-3s1.34-3,3-3,3,1.34,3,3-1.34,3-3,3Z"/>
  <path id="Path_546" data-name="Path 546" class="gdp" d="m1835.96,7.34c-1.66,0-3-1.34-3-3,0-1.66,1.34-3,3-3s3,1.34,3,3-1.34,3-3,3Z"/>
  <path id="Path_547" data-name="Path 547" class="gdp" d="m1846.63,23.33c-1.66,0-3-1.34-3-3,0-1.66,1.34-3,3-3,1.66,0,3,1.34,3,3s-1.34,3-3,3Z"/>
  <path id="Path_548" data-name="Path 548" class="gdp" d="m1846.63,12.67c-1.66,0-3-1.34-3-3,0-1.66,1.34-3,3-3,1.66,0,3,1.34,3,3h0c0,1.66-1.34,3-3,3Z"/>
  <path id="Path_549" data-name="Path 549" class="gdp" d="m1857.13,28.66c-1.66,0-3-1.34-3-3s1.34-3,3-3,3,1.34,3,3-1.34,3-3,3Z"/>
  <path id="Path_550" data-name="Path 550" class="gdp" d="m1857.13,18c-1.66,0-3-1.34-3-3s1.34-3,3-3,3,1.34,3,3-1.34,3-3,3Z"/>
  <path id="Path_551" data-name="Path 551" class="gdp" d="m1857.13,7.34c-1.66,0-3-1.34-3-3s1.34-3,3-3,3,1.34,3,3-1.34,3-3,3Z"/>
  <path id="Path_552" data-name="Path 552" class="gdp" d="m1867.8,17.32c1.66,0,3,1.34,3,3s-1.34,3-3,3-3-1.34-3-3,1.34-3,3-3Z"/>
  <path id="Path_553" data-name="Path 553" class="gdp" d="m1867.8,12.67c-1.66,0-3-1.34-3-3s1.34-3,3-3h0c1.66,0,3,1.34,3,3h0c0,1.66-1.34,3-3,3Z"/>
  <path id="Path_554" data-name="Path 554" class="gdp" d="m1391.4,28.66c-1.66,0-3-1.34-3-3s1.34-3,3-3,3,1.34,3,3-1.34,3-3,3Z"/>
  <path id="Path_555" data-name="Path 555" class="gdp" d="m1391.4,18c-1.66,0-3-1.34-3-3s1.34-3,3-3,3,1.34,3,3-1.34,3-3,3Z"/>
  <path id="Path_556" data-name="Path 556" class="gdp" d="m1391.4,7.34c-1.66,0-3-1.34-3-3s1.34-3,3-3,3,1.34,3,3-1.34,3-3,3Z"/>
  <path id="Path_557" data-name="Path 557" class="gdp" d="m1402.07,23.33c-1.66,0-3-1.34-3-3s1.34-3,3-3,3,1.34,3,3-1.34,3-3,3Z"/>
  <path id="Path_558" data-name="Path 558" class="gdp" d="m1402.07,12.67c-1.66,0-3-1.34-3-3s1.34-3,3-3h0c1.66,0,3,1.34,3,3h0c0,1.66-1.34,3-3,3Z"/>
  <path id="Path_559" data-name="Path 559" class="gdp" d="m1412.57,28.66c-1.66,0-3-1.34-3-3s1.34-3,3-3,3,1.34,3,3-1.34,3-3,3Z"/>
  <path id="Path_560" data-name="Path 560" class="gdp" d="m1412.57,18c-1.66,0-3-1.34-3-3s1.34-3,3-3,3,1.34,3,3-1.34,3-3,3Z"/>
  <path id="Path_561" data-name="Path 561" class="gdp" d="m1412.57,7.34c-1.66,0-3-1.34-3-3s1.34-3,3-3,3,1.34,3,3-1.34,3-3,3Z"/>
  <path id="Path_562" data-name="Path 562" class="gdp" d="m1423.24,23.33c-1.66,0-3-1.34-3-3s1.34-3,3-3c1.66,0,3,1.34,3,3,0,1.66-1.34,3-3,3Z"/>
  <path id="Path_563" data-name="Path 563" class="gdp" d="m1423.24,12.67c-1.66,0-3-1.34-3-3s1.34-3,3-3h0c1.66,0,3,1.34,3,3,0,1.66-1.34,3-3,3Z"/>
  <path id="Path_564" data-name="Path 564" class="gdp" d="m1433.74,28.66c-1.66,0-3-1.34-3-3s1.34-3,3-3c1.66,0,3,1.34,3,3h0c0,1.66-1.34,3-3,3h0Z"/>
  <path id="Path_565" data-name="Path 565" class="gdp" d="m1433.74,18c-1.66,0-3-1.34-3-3,0-1.66,1.34-3,3-3,1.66,0,3,1.34,3,3h0c0,1.66-1.34,3-3,3h0Z"/>
  <path id="Path_566" data-name="Path 566" class="gdp" d="m1433.74,7.34c-1.66,0-3-1.34-3-3,0-1.66,1.34-3,3-3,1.66,0,3,1.34,3,3h0c0,1.66-1.34,3-3,3h0Z"/>
  <path id="Path_567" data-name="Path 567" class="gdp" d="m1444.41,23.33c-1.66,0-3-1.34-3-3s1.34-3,3-3c1.66,0,3,1.34,3,3,0,1.66-1.34,3-3,3Z"/>
  <path id="Path_568" data-name="Path 568" class="gdp" d="m1444.41,12.67c-1.66,0-3-1.34-3-3s1.34-3,3-3h0c1.66,0,3,1.34,3,3,0,1.66-1.34,3-3,3Z"/>
  <path id="Path_569" data-name="Path 569" class="gdp" d="m1454.91,28.66c-1.66,0-3-1.34-3-3s1.34-3,3-3,3,1.34,3,3-1.34,3-3,3Z"/>
  <path id="Path_570" data-name="Path 570" class="gdp" d="m1454.91,18c-1.66,0-3-1.34-3-3s1.34-3,3-3,3,1.34,3,3-1.34,3-3,3Z"/>
  <path id="Path_571" data-name="Path 571" class="gdp" d="m1454.91,7.34c-1.66,0-3-1.34-3-3s1.34-3,3-3,3,1.34,3,3-1.34,3-3,3Z"/>
  <path id="Path_572" data-name="Path 572" class="gdp" d="m1465.58,23.33c-1.66,0-3-1.34-3-3s1.34-3,3-3,3,1.34,3,3-1.34,3-3,3Z"/>
  <path id="Path_573" data-name="Path 573" class="gdp" d="m1465.58,12.67c-1.66,0-3-1.34-3-3s1.34-3,3-3h0c1.66,0,3,1.34,3,3h0c0,1.66-1.34,3-3,3Z"/>
  <path id="Path_574" data-name="Path 574" class="gdp" d="m1476.08,28.66c-1.66,0-3-1.34-3-3s1.34-3,3-3,3,1.34,3,3-1.34,3-3,3Z"/>
  <path id="Path_575" data-name="Path 575" class="gdp" d="m1476.08,18c-1.66,0-3-1.34-3-3,0-1.66,1.34-3,3-3s3,1.34,3,3-1.34,3-3,3Z"/>
  <path id="Path_576" data-name="Path 576" class="gdp" d="m1476.08,7.34c-1.66,0-3-1.34-3-3,0-1.66,1.34-3,3-3,1.66,0,3,1.34,3,3s-1.34,3-3,3Z"/>
  <path id="Path_577" data-name="Path 577" class="gdp" d="m1486.75,23.33c-1.66,0-3-1.34-3-3s1.34-3,3-3,3,1.34,3,3-1.34,3-3,3Z"/>
  <path id="Path_578" data-name="Path 578" class="gdp" d="m1486.75,12.67c-1.66,0-3-1.34-3-3s1.34-3,3-3h0c1.66,0,3,1.34,3,3h0c0,1.66-1.34,3-3,3Z"/>
  <path id="Path_579" data-name="Path 579" class="gdp" d="m1497.25,28.66c-1.66,0-3-1.34-3-3s1.34-3,3-3,3,1.34,3,3-1.34,3-3,3Z"/>
  <path id="Path_580" data-name="Path 580" class="gdp" d="m1497.25,18c-1.66,0-3-1.34-3-3s1.34-3,3-3,3,1.34,3,3-1.34,3-3,3Z"/>
  <path id="Path_581" data-name="Path 581" class="gdp" d="m1497.25,7.34c-1.66,0-3-1.34-3-3s1.34-3,3-3,3,1.34,3,3-1.34,3-3,3Z"/>
  <path id="Path_582" data-name="Path 582" class="gdp" d="m1507.92,23.33c-1.66,0-3-1.34-3-3s1.34-3,3-3c1.66,0,3,1.34,3,3,0,1.66-1.34,3-3,3h0Z"/>
  <path id="Path_583" data-name="Path 583" class="gdp" d="m1507.92,12.67c-1.66,0-3-1.34-3-3s1.34-3,3-3h0c1.66,0,3,1.34,3,3,0,1.66-1.35,3-3,3Z"/>
  <path id="Path_584" data-name="Path 584" class="gdp" d="m1518.42,28.66c-1.66,0-3-1.34-3-3s1.34-3,3-3,3,1.34,3,3-1.34,3-3,3Z"/>
  <path id="Path_585" data-name="Path 585" class="gdp" d="m1518.42,18c-1.66,0-3-1.34-3-3s1.34-3,3-3,3,1.34,3,3-1.34,3-3,3Z"/>
  <path id="Path_586" data-name="Path 586" class="gdp" d="m1518.42,7.34c-1.66,0-3-1.34-3-3s1.34-3,3-3,3,1.34,3,3-1.34,3-3,3Z"/>
  <path id="Path_587" data-name="Path 587" class="gdp" d="m1529.09,23.33c-1.66,0-3-1.34-3-3h0c0-1.66,1.34-3,3-3h0c1.66,0,3,1.34,3,3s-1.34,3-3,3Z"/>
  <path id="Path_588" data-name="Path 588" class="gdp" d="m1529.09,12.67c-1.66,0-3-1.34-3-3h0c0-1.66,1.34-3,3-3h0c1.66,0,3,1.34,3,3h0c0,1.66-1.34,3-3,3Z"/>
  <path id="Path_589" data-name="Path 589" class="gdp" d="m1539.59,28.66c-1.66,0-3-1.34-3-3s1.34-3,3-3,3,1.34,3,3-1.34,3-3,3Z"/>
  <path id="Path_590" data-name="Path 590" class="gdp" d="m1539.59,18c-1.66,0-3-1.34-3-3s1.34-3,3-3,3,1.34,3,3-1.34,3-3,3Z"/>
  <path id="Path_591" data-name="Path 591" class="gdp" d="m1539.59,7.34c-1.66,0-3-1.34-3-3,0-1.66,1.34-3,3-3s3,1.34,3,3-1.34,3-3,3Z"/>
  <path id="Path_592" data-name="Path 592" class="gdp" d="m1550.26,23.33c-1.66,0-3-1.34-3-3,0-1.66,1.34-3,3-3,1.66,0,3,1.34,3,3h0c0,1.66-1.34,3-3,3h0Z"/>
  <path id="Path_593" data-name="Path 593" class="gdp" d="m1550.26,12.67c-1.66,0-3-1.34-3-3,0-1.66,1.34-3,3-3,1.66,0,3,1.34,3,3h0c0,1.66-1.34,3-3,3h0Z"/>
  <path id="Path_594" data-name="Path 594" class="gdp" d="m1560.76,28.66c-1.66,0-3-1.34-3-3s1.34-3,3-3,3,1.34,3,3-1.34,3-3,3Z"/>
  <path id="Path_595" data-name="Path 595" class="gdp" d="m1560.76,18c-1.66,0-3-1.34-3-3s1.34-3,3-3,3,1.34,3,3-1.34,3-3,3Z"/>
  <path id="Path_596" data-name="Path 596" class="gdp" d="m1560.76,7.34c-1.66,0-3-1.34-3-3s1.34-3,3-3,3,1.34,3,3-1.34,3-3,3Z"/>
  <path id="Path_597" data-name="Path 597" class="gdp" d="m1571.42,23.33c-1.66,0-3-1.34-3-3,0-1.66,1.34-3,3-3,1.66,0,3,1.34,3,3s-1.34,3-3,3Z"/>
  <path id="Path_598" data-name="Path 598" class="gdp" d="m1571.42,12.67c-1.66,0-3-1.34-3-3,0-1.66,1.34-3,3-3,1.66,0,3,1.34,3,3h0c0,1.66-1.34,3-3,3Z"/>
  <path id="Path_599" data-name="Path 599" class="gdp" d="m1581.93,28.66c-1.66,0-3-1.34-3-3s1.34-3,3-3,3,1.34,3,3-1.34,3-3,3Z"/>
  <path id="Path_600" data-name="Path 600" class="gdp" d="m1581.93,18c-1.66,0-3-1.34-3-3s1.34-3,3-3,3,1.34,3,3-1.34,3-3,3Z"/>
  <path id="Path_601" data-name="Path 601" class="gdp" d="m1581.93,7.34c-1.66,0-3-1.34-3-3s1.34-3,3-3,3,1.34,3,3-1.34,3-3,3Z"/>
  <path id="Path_602" data-name="Path 602" class="gdp" d="m1592.59,23.33c-1.66,0-3-1.34-3-3s1.34-3,3-3,3,1.34,3,3-1.34,3-3,3Z"/>
  <path id="Path_603" data-name="Path 603" class="gdp" d="m1592.59,12.67c-1.66,0-3-1.34-3-3s1.34-3,3-3h0c1.66,0,3,1.34,3,3h0c0,1.66-1.34,3-3,3Z"/>
  <path id="Path_604" data-name="Path 604" class="gdp" d="m1603.1,28.66c-1.66,0-3-1.34-3-3s1.34-3,3-3,3,1.34,3,3-1.34,3-3,3Z"/>
  <path id="Path_605" data-name="Path 605" class="gdp" d="m1603.1,18c-1.66,0-3-1.34-3-3s1.34-3,3-3,3,1.34,3,3-1.34,3-3,3Z"/>
  <path id="Path_606" data-name="Path 606" class="gdp" d="m1603.1,7.34c-1.66,0-3-1.34-3-3s1.34-3,3-3,3,1.34,3,3-1.34,3-3,3Z"/>
  <path id="Path_607" data-name="Path 607" class="gdp" d="m1613.76,23.33c-1.66,0-3-1.34-3-3,0-1.66,1.34-3,3-3,1.66,0,3,1.34,3,3s-1.34,3-3,3Z"/>
  <path id="Path_608" data-name="Path 608" class="gdp" d="m1613.76,12.67c-1.66,0-3-1.34-3-3,0-1.66,1.34-3,3-3,1.66,0,3,1.34,3,3h0c0,1.66-1.34,3-3,3Z"/>
  <path id="Path_609" data-name="Path 609" class="gdp" d="m1624.27,28.66c-1.66,0-3-1.34-3-3s1.34-3,3-3,3,1.34,3,3-1.34,3-3,3Z"/>
  <path id="Path_610" data-name="Path 610" class="gdp" d="m1624.27,18c-1.66,0-3-1.34-3-3s1.34-3,3-3,3,1.34,3,3-1.34,3-3,3Z"/>
  <path id="Path_611" data-name="Path 611" class="gdp" d="m1624.27,7.34c-1.66,0-3-1.34-3-3s1.34-3,3-3,3,1.34,3,3-1.34,3-3,3Z"/>
  <path id="Path_612" data-name="Path 612" class="gdp" d="m1634.93,23.33c-1.66,0-3-1.34-3-3,0-1.66,1.34-3,3-3,1.66,0,3,1.34,3,3s-1.34,3-3,3Z"/>
  <path id="Path_613" data-name="Path 613" class="gdp" d="m1634.93,12.67c-1.66,0-3-1.34-3-3,0-1.66,1.34-3,3-3,1.66,0,3,1.34,3,3h0c0,1.66-1.34,3-3,3Z"/>
  <path id="Path_614" data-name="Path 614" class="gdp" d="m1179.7,28.66c-1.66,0-3-1.34-3-3s1.34-3,3-3,3,1.34,3,3-1.34,3-3,3Z"/>
  <path id="Path_615" data-name="Path 615" class="gdp" d="m1179.7,18c-1.66,0-3-1.34-3-3s1.34-3,3-3,3,1.34,3,3-1.34,3-3,3Z"/>
  <path id="Path_616" data-name="Path 616" class="gdp" d="m1179.7,7.34c-1.66,0-3-1.34-3-3s1.34-3,3-3,3,1.34,3,3-1.34,3-3,3Z"/>
  <path id="Path_617" data-name="Path 617" class="gdp" d="m1190.37,23.33c-1.66,0-3-1.34-3-3s1.34-3,3-3,3,1.34,3,3-1.34,3-3,3Z"/>
  <path id="Path_618" data-name="Path 618" class="gdp" d="m1190.37,12.67c-1.66,0-3-1.34-3-3s1.34-3,3-3h0c1.66,0,3,1.34,3,3h0c0,1.66-1.34,3-3,3Z"/>
  <path id="Path_619" data-name="Path 619" class="gdp" d="m1200.87,28.66c-1.66,0-3-1.34-3-3s1.34-3,3-3,3,1.34,3,3-1.34,3-3,3Z"/>
  <path id="Path_620" data-name="Path 620" class="gdp" d="m1200.87,18c-1.66,0-3-1.34-3-3s1.34-3,3-3,3,1.34,3,3-1.34,3-3,3Z"/>
  <path id="Path_621" data-name="Path 621" class="gdp" d="m1200.87,7.34c-1.66,0-3-1.34-3-3s1.34-3,3-3,3,1.34,3,3-1.34,3-3,3Z"/>
  <path id="Path_622" data-name="Path 622" class="gdp" d="m1211.54,23.33c-1.66,0-3-1.34-3-3s1.34-3,3-3,3,1.34,3,3-1.34,3-3,3Z"/>
  <path id="Path_623" data-name="Path 623" class="gdp" d="m1211.54,12.67c-1.66,0-3-1.34-3-3s1.34-3,3-3h0c1.66,0,3,1.34,3,3h0c0,1.66-1.34,3-3,3Z"/>
  <path id="Path_624" data-name="Path 624" class="gdp" d="m1222.04,28.66c-1.66,0-3-1.34-3-3s1.34-3,3-3,3,1.34,3,3-1.34,3-3,3Z"/>
  <path id="Path_625" data-name="Path 625" class="gdp" d="m1222.04,18c-1.66,0-3-1.34-3-3s1.34-3,3-3,3,1.34,3,3-1.34,3-3,3Z"/>
  <path id="Path_626" data-name="Path 626" class="gdp" d="m1222.04,7.34c-1.66,0-3-1.34-3-3s1.34-3,3-3,3,1.34,3,3c0,1.66-1.34,3-3,3Z"/>
  <path id="Path_627" data-name="Path 627" class="gdp" d="m1232.71,23.33c-1.66,0-3-1.34-3-3s1.34-3,3-3,3,1.34,3,3-1.34,3-3,3Z"/>
  <path id="Path_628" data-name="Path 628" class="gdp" d="m1232.71,12.67c-1.66,0-3-1.34-3-3s1.34-3,3-3h0c1.66,0,3,1.34,3,3h0c0,1.66-1.34,3-3,3Z"/>
  <path id="Path_629" data-name="Path 629" class="gdp" d="m1243.21,28.66c-1.66,0-3-1.34-3-3s1.34-3,3-3,3,1.34,3,3-1.34,3-3,3Z"/>
  <path id="Path_630" data-name="Path 630" class="gdp" d="m1243.21,18c-1.66,0-3-1.34-3-3s1.34-3,3-3,3,1.34,3,3-1.34,3-3,3Z"/>
  <path id="Path_631" data-name="Path 631" class="gdp" d="m1243.21,7.34c-1.66,0-3-1.34-3-3,0-1.66,1.34-3,3-3s3,1.34,3,3c0,1.66-1.34,3-3,3Z"/>
  <path id="Path_632" data-name="Path 632" class="gdp" d="m1253.88,23.33c-1.66,0-3-1.34-3-3s1.34-3,3-3,3,1.34,3,3-1.34,3-3,3Z"/>
  <path id="Path_633" data-name="Path 633" class="gdp" d="m1253.88,12.67c-1.66,0-3-1.34-3-3s1.34-3,3-3h0c1.66,0,3,1.34,3,3h0c0,1.66-1.34,3-3,3Z"/>
  <path id="Path_634" data-name="Path 634" class="gdp" d="m1264.38,28.66c-1.66,0-3-1.34-3-3s1.34-3,3-3,3,1.34,3,3-1.34,3-3,3Z"/>
  <path id="Path_635" data-name="Path 635" class="gdp" d="m1264.38,18c-1.66,0-3-1.34-3-3s1.34-3,3-3,3,1.34,3,3-1.34,3-3,3Z"/>
  <path id="Path_636" data-name="Path 636" class="gdp" d="m1264.38,7.34c-1.66,0-3-1.34-3-3s1.34-3,3-3,3,1.34,3,3-1.34,3-3,3Z"/>
  <path id="Path_637" data-name="Path 637" class="gdp" d="m1275.05,23.33c-1.66,0-3-1.34-3-3s1.34-3,3-3,3,1.34,3,3-1.34,3-3,3Z"/>
  <path id="Path_638" data-name="Path 638" class="gdp" d="m1275.05,12.67c-1.66,0-3-1.34-3-3s1.34-3,3-3h0c1.66,0,3,1.34,3,3h0c0,1.66-1.34,3-3,3Z"/>
  <path id="Path_639" data-name="Path 639" class="gdp" d="m1285.55,28.66c-1.66,0-3-1.34-3-3s1.34-3,3-3,3,1.34,3,3-1.34,3-3,3Z"/>
  <path id="Path_640" data-name="Path 640" class="gdp" d="m1285.55,18c-1.66,0-3-1.34-3-3s1.34-3,3-3,3,1.34,3,3-1.34,3-3,3Z"/>
  <path id="Path_641" data-name="Path 641" class="gdp" d="m1285.55,7.34c-1.66,0-3-1.34-3-3s1.34-3,3-3,3,1.34,3,3-1.34,3-3,3Z"/>
  <path id="Path_642" data-name="Path 642" class="gdp" d="m1296.22,23.33c-1.66,0-3-1.34-3-3s1.34-3,3-3,3,1.34,3,3-1.34,3-3,3Z"/>
  <path id="Path_643" data-name="Path 643" class="gdp" d="m1296.22,12.67c-1.66,0-3-1.34-3-3s1.34-3,3-3h0c1.66,0,3,1.34,3,3h0c0,1.66-1.34,3-3,3Z"/>
  <path id="Path_644" data-name="Path 644" class="gdp" d="m1306.72,28.66c-1.66,0-3-1.34-3-3s1.34-3,3-3,3,1.34,3,3-1.34,3-3,3Z"/>
  <path id="Path_645" data-name="Path 645" class="gdp" d="m1306.72,18c-1.66,0-3-1.34-3-3,0-1.66,1.34-3,3-3s3,1.34,3,3-1.34,3-3,3Z"/>
  <path id="Path_646" data-name="Path 646" class="gdp" d="m1306.72,7.34c-1.66,0-3-1.34-3-3,0-1.66,1.34-3,3-3,1.66,0,3,1.34,3,3,0,1.66-1.34,3-3,3Z"/>
  <path id="Path_647" data-name="Path 647" class="gdp" d="m1317.39,23.33c-1.66,0-3-1.34-3-3s1.34-3,3-3c1.66,0,3,1.34,3,3,0,1.66-1.34,3-3,3Z"/>
  <path id="Path_648" data-name="Path 648" class="gdp" d="m1317.39,12.67c-1.66,0-3-1.34-3-3s1.34-3,3-3h0c1.66,0,3,1.34,3,3,0,1.66-1.34,3-3,3Z"/>
  <path id="Path_649" data-name="Path 649" class="gdp" d="m1327.89,28.66c-1.66,0-3-1.34-3-3s1.34-3,3-3,3,1.34,3,3-1.34,3-3,3Z"/>
  <path id="Path_650" data-name="Path 650" class="gdp" d="m1327.89,18c-1.66,0-3-1.34-3-3s1.34-3,3-3,3,1.34,3,3-1.34,3-3,3Z"/>
  <path id="Path_651" data-name="Path 651" class="gdp" d="m1327.89,7.34c-1.66,0-3-1.34-3-3s1.34-3,3-3,3,1.34,3,3-1.34,3-3,3Z"/>
  <path id="Path_652" data-name="Path 652" class="gdp" d="m1338.56,23.33c-1.66,0-3-1.34-3-3s1.34-3,3-3,3,1.34,3,3-1.34,3-3,3Z"/>
  <path id="Path_653" data-name="Path 653" class="gdp" d="m1338.56,12.67c-1.66,0-3-1.34-3-3s1.34-3,3-3h0c1.66,0,3,1.34,3,3h0c0,1.66-1.34,3-3,3Z"/>
  <path id="Path_654" data-name="Path 654" class="gdp" d="m1349.06,28.66c-1.66,0-3-1.34-3-3s1.34-3,3-3,3,1.34,3,3-1.34,3-3,3Z"/>
  <path id="Path_655" data-name="Path 655" class="gdp" d="m1349.06,18c-1.66,0-3-1.34-3-3,0-1.66,1.34-3,3-3s3,1.34,3,3-1.34,3-3,3Z"/>
  <path id="Path_656" data-name="Path 656" class="gdp" d="m1349.06,7.34c-1.66,0-3-1.34-3-3,0-1.66,1.34-3,3-3,1.66,0,3,1.34,3,3s-1.34,3-3,3Z"/>
  <path id="Path_657" data-name="Path 657" class="gdp" d="m1359.73,23.33c-1.66,0-3-1.34-3-3s1.34-3,3-3c1.66,0,3,1.34,3,3,0,1.66-1.34,3-3,3h0Z"/>
  <path id="Path_658" data-name="Path 658" class="gdp" d="m1359.73,12.67c-1.66,0-3-1.34-3-3s1.34-3,3-3h0c1.66,0,3,1.34,3,3,0,1.66-1.35,3-3,3Z"/>
  <path id="Path_659" data-name="Path 659" class="gdp" d="m1370.23,28.66c-1.66,0-3-1.34-3-3s1.34-3,3-3,3,1.34,3,3-1.34,3-3,3Z"/>
  <path id="Path_660" data-name="Path 660" class="gdp" d="m1370.23,18c-1.66,0-3-1.34-3-3s1.34-3,3-3,3,1.34,3,3-1.34,3-3,3Z"/>
  <path id="Path_661" data-name="Path 661" class="gdp" d="m1370.23,7.34c-1.66,0-3-1.34-3-3s1.34-3,3-3,3,1.34,3,3-1.34,3-3,3Z"/>
  <path id="Path_662" data-name="Path 662" class="gdp" d="m1380.9,23.33c-1.66,0-3-1.34-3-3s1.34-3,3-3,3,1.34,3,3-1.34,3-3,3Z"/>
  <path id="Path_663" data-name="Path 663" class="gdp" d="m1380.9,12.67c-1.66,0-3-1.34-3-3s1.34-3,3-3h0c1.66,0,3,1.34,3,3h0c0,1.66-1.34,3-3,3Z"/>
  <path id="Path_664" data-name="Path 664" class="gdp" d="m1391.4,28.66c-1.66,0-3-1.34-3-3s1.34-3,3-3,3,1.34,3,3-1.34,3-3,3Z"/>
  <path id="Path_665" data-name="Path 665" class="gdp" d="m1391.4,18c-1.66,0-3-1.34-3-3s1.34-3,3-3,3,1.34,3,3-1.34,3-3,3Z"/>
  <path id="Path_666" data-name="Path 666" class="gdp" d="m1391.4,7.34c-1.66,0-3-1.34-3-3,0-1.66,1.34-3,3-3s3,1.34,3,3-1.34,3-3,3Z"/>
  <path id="Path_667" data-name="Path 667" class="gdp" d="m1402.07,17.32c1.66,0,3,1.34,3,3s-1.34,3-3,3-3-1.34-3-3,1.34-3,3-3Z"/>
  <path id="Path_668" data-name="Path 668" class="gdp" d="m1402.07,12.67c-1.66,0-3-1.34-3-3s1.34-3,3-3h0c1.66,0,3,1.34,3,3h0c0,1.66-1.34,3-3,3Z"/>
  <path id="Path_669" data-name="Path 669" class="gdp" d="m925.67,28.66c-1.66,0-3-1.34-3-3s1.34-3,3-3,3,1.34,3,3-1.34,3-3,3Z"/>
  <path id="Path_670" data-name="Path 670" class="gdp" d="m925.67,18c-1.66,0-3-1.34-3-3s1.34-3,3-3,3,1.34,3,3-1.34,3-3,3Z"/>
  <path id="Path_671" data-name="Path 671" class="gdp" d="m925.67,7.34c-1.66,0-3-1.34-3-3s1.34-3,3-3,3,1.34,3,3-1.34,3-3,3Z"/>
  <path id="Path_672" data-name="Path 672" class="gdp" d="m936.34,23.33c-1.66,0-3-1.34-3-3s1.34-3,3-3c1.66,0,3,1.34,3,3,0,1.66-1.34,3-3,3Z"/>
  <path id="Path_673" data-name="Path 673" class="gdp" d="m936.34,12.67c-1.66,0-3-1.34-3-3s1.34-3,3-3h0c1.66,0,3,1.34,3,3,0,1.66-1.34,3-3,3Z"/>
  <path id="Path_674" data-name="Path 674" class="gdp" d="m946.83,28.66c-1.66,0-3-1.34-3-3s1.34-3,3-3,3,1.34,3,3-1.34,3-3,3Z"/>
  <path id="Path_675" data-name="Path 675" class="gdp" d="m946.83,18c-1.66,0-3-1.34-3-3s1.34-3,3-3,3,1.34,3,3-1.34,3-3,3Z"/>
  <path id="Path_676" data-name="Path 676" class="gdp" d="m946.83,7.34c-1.66,0-3-1.34-3-3s1.34-3,3-3,3,1.34,3,3c0,1.66-1.34,3-3,3Z"/>
  <path id="Path_677" data-name="Path 677" class="gdp" d="m957.5,23.33c-1.66,0-3-1.34-3-3s1.34-3,3-3c1.66,0,3,1.34,3,3,0,1.66-1.34,3-3,3Z"/>
  <path id="Path_678" data-name="Path 678" class="gdp" d="m957.5,12.67c-1.66,0-3-1.34-3-3s1.34-3,3-3h0c1.66,0,3,1.34,3,3,0,1.66-1.34,3-3,3Z"/>
  <path id="Path_679" data-name="Path 679" class="gdp" d="m968,28.66c-1.66,0-3-1.34-3-3s1.34-3,3-3,3,1.34,3,3-1.34,3-3,3Z"/>
  <path id="Path_680" data-name="Path 680" class="gdp" d="m968,18c-1.66,0-3-1.34-3-3s1.34-3,3-3,3,1.34,3,3-1.34,3-3,3Z"/>
  <path id="Path_681" data-name="Path 681" class="gdp" d="m968,7.34c-1.66,0-3-1.34-3-3,0-1.66,1.34-3,3-3s3,1.34,3,3-1.34,3-3,3Z"/>
  <path id="Path_682" data-name="Path 682" class="gdp" d="m978.67,23.33c-1.66,0-3-1.34-3-3s1.34-3,3-3,3,1.34,3,3-1.34,3-3,3Z"/>
  <path id="Path_683" data-name="Path 683" class="gdp" d="m978.67,12.67c-1.66,0-3-1.34-3-3s1.34-3,3-3h0c1.66,0,3,1.34,3,3h0c0,1.66-1.34,3-3,3Z"/>
  <path id="Path_684" data-name="Path 684" class="gdp" d="m989.17,28.66c-1.66,0-3-1.34-3-3s1.34-3,3-3,3,1.34,3,3-1.34,3-3,3Z"/>
  <path id="Path_685" data-name="Path 685" class="gdp" d="m989.17,18c-1.66,0-3-1.34-3-3s1.34-3,3-3,3,1.34,3,3-1.34,3-3,3Z"/>
  <path id="Path_686" data-name="Path 686" class="gdp" d="m989.17,7.34c-1.66,0-3-1.34-3-3,0-1.66,1.34-3,3-3s3,1.34,3,3-1.34,3-3,3Z"/>
  <path id="Path_687" data-name="Path 687" class="gdp" d="m999.84,23.33c-1.66,0-3-1.34-3-3s1.34-3,3-3c1.66,0,3,1.34,3,3,0,1.66-1.34,3-3,3Z"/>
  <path id="Path_688" data-name="Path 688" class="gdp" d="m999.84,12.67c-1.66,0-3-1.34-3-3,0-1.66,1.34-3,3-3,1.66,0,3,1.34,3,3,0,1.66-1.34,3-3,3Z"/>
  <path id="Path_689" data-name="Path 689" class="gdp" d="m1010.34,28.66c-1.66,0-3-1.34-3-3s1.34-3,3-3,3,1.34,3,3-1.34,3-3,3Z"/>
  <path id="Path_690" data-name="Path 690" class="gdp" d="m1010.34,18c-1.66,0-3-1.34-3-3s1.34-3,3-3,3,1.34,3,3-1.34,3-3,3Z"/>
  <path id="Path_691" data-name="Path 691" class="gdp" d="m1010.34,7.34c-1.66,0-3-1.34-3-3s1.34-3,3-3,3,1.34,3,3-1.34,3-3,3Z"/>
  <path id="Path_692" data-name="Path 692" class="gdp" d="m1021.01,23.33c-1.66,0-3-1.34-3-3s1.34-3,3-3,3,1.34,3,3-1.34,3-3,3Z"/>
  <path id="Path_693" data-name="Path 693" class="gdp" d="m1021.01,12.67c-1.66,0-3-1.34-3-3s1.34-3,3-3h0c1.66,0,3,1.34,3,3h0c0,1.66-1.34,3-3,3Z"/>
  <path id="Path_694" data-name="Path 694" class="gdp" d="m1031.51,28.66c-1.66,0-3-1.34-3-3s1.34-3,3-3,3,1.34,3,3-1.34,3-3,3Z"/>
  <path id="Path_695" data-name="Path 695" class="gdp" d="m1031.51,18c-1.66,0-3-1.34-3-3s1.34-3,3-3,3,1.34,3,3-1.34,3-3,3Z"/>
  <path id="Path_696" data-name="Path 696" class="gdp" d="m1031.51,7.34c-1.66,0-3-1.34-3-3s1.34-3,3-3,3,1.34,3,3-1.34,3-3,3Z"/>
  <path id="Path_697" data-name="Path 697" class="gdp" d="m1042.18,23.33c-1.66,0-3-1.34-3-3s1.34-3,3-3,3,1.34,3,3-1.34,3-3,3Z"/>
  <path id="Path_698" data-name="Path 698" class="gdp" d="m1042.18,12.67c-1.66,0-3-1.34-3-3s1.34-3,3-3h0c1.66,0,3,1.34,3,3h0c0,1.66-1.34,3-3,3Z"/>
  <path id="Path_699" data-name="Path 699" class="gdp" d="m1052.68,28.66c-1.66,0-3-1.34-3-3s1.34-3,3-3,3,1.34,3,3-1.34,3-3,3Z"/>
  <path id="Path_700" data-name="Path 700" class="gdp" d="m1052.68,18c-1.66,0-3-1.34-3-3s1.34-3,3-3,3,1.34,3,3-1.34,3-3,3Z"/>
  <path id="Path_701" data-name="Path 701" class="gdp" d="m1052.68,7.34c-1.66,0-3-1.34-3-3s1.34-3,3-3,3,1.34,3,3-1.34,3-3,3Z"/>
  <path id="Path_702" data-name="Path 702" class="gdp" d="m1063.35,23.33c-1.66,0-3-1.34-3-3,0-1.66,1.34-3,3-3,1.66,0,3,1.34,3,3,0,1.66-1.34,3-3,3Z"/>
  <path id="Path_703" data-name="Path 703" class="gdp" d="m1063.35,12.67c-1.66,0-3-1.34-3-3,0-1.66,1.34-3,3-3,1.66,0,3,1.34,3,3,0,1.66-1.34,3-3,3Z"/>
  <path id="Path_704" data-name="Path 704" class="gdp" d="m1073.85,28.66c-1.66,0-3-1.34-3-3s1.34-3,3-3,3,1.34,3,3-1.34,3-3,3Z"/>
  <path id="Path_705" data-name="Path 705" class="gdp" d="m1073.85,18c-1.66,0-3-1.34-3-3s1.34-3,3-3,3,1.34,3,3-1.34,3-3,3Z"/>
  <path id="Path_706" data-name="Path 706" class="gdp" d="m1073.85,7.34c-1.66,0-3-1.34-3-3s1.34-3,3-3,3,1.34,3,3-1.34,3-3,3Z"/>
  <path id="Path_707" data-name="Path 707" class="gdp" d="m1084.52,23.33c-1.66,0-3-1.34-3-3s1.34-3,3-3c1.66,0,3,1.34,3,3,0,1.66-1.34,3-3,3h0Z"/>
  <path id="Path_708" data-name="Path 708" class="gdp" d="m1084.52,12.67c-1.66,0-3-1.34-3-3s1.34-3,3-3h0c1.66,0,3,1.34,3,3,0,1.66-1.35,3-3,3Z"/>
  <path id="Path_709" data-name="Path 709" class="gdp" d="m1095.02,28.66c-1.66,0-3-1.34-3-3s1.34-3,3-3,3,1.34,3,3-1.34,3-3,3Z"/>
  <path id="Path_710" data-name="Path 710" class="gdp" d="m1095.02,18c-1.66,0-3-1.34-3-3s1.34-3,3-3,3,1.34,3,3-1.34,3-3,3Z"/>
  <path id="Path_711" data-name="Path 711" class="gdp" d="m1095.02,7.34c-1.66,0-3-1.34-3-3s1.34-3,3-3,3,1.34,3,3-1.34,3-3,3Z"/>
  <path id="Path_712" data-name="Path 712" class="gdp" d="m1105.69,23.33c-1.66,0-3-1.34-3-3s1.34-3,3-3,3,1.34,3,3-1.34,3-3,3Z"/>
  <path id="Path_713" data-name="Path 713" class="gdp" d="m1105.69,12.67c-1.66,0-3-1.34-3-3s1.34-3,3-3h0c1.66,0,3,1.34,3,3h0c0,1.66-1.34,3-3,3Z"/>
  <path id="Path_714" data-name="Path 714" class="gdp" d="m1116.19,28.66c-1.66,0-3-1.34-3-3s1.34-3,3-3,3,1.34,3,3-1.34,3-3,3Z"/>
  <path id="Path_715" data-name="Path 715" class="gdp" d="m1116.19,18c-1.66,0-3-1.34-3-3s1.34-3,3-3,3,1.34,3,3-1.34,3-3,3Z"/>
  <path id="Path_716" data-name="Path 716" class="gdp" d="m1116.19,7.34c-1.66,0-3-1.34-3-3s1.34-3,3-3,3,1.34,3,3-1.34,3-3,3Z"/>
  <path id="Path_717" data-name="Path 717" class="gdp" d="m1126.86,23.33c-1.66,0-3-1.34-3-3,0-1.66,1.34-3,3-3,1.66,0,3,1.34,3,3h0c0,1.66-1.34,3-3,3h0Z"/>
  <path id="Path_718" data-name="Path 718" class="gdp" d="m1126.86,12.67c-1.66,0-3-1.34-3-3,0-1.66,1.34-3,3-3,1.66,0,3,1.34,3,3h0c0,1.66-1.34,3-3,3h0Z"/>
  <path id="Path_719" data-name="Path 719" class="gdp" d="m1137.36,28.66c-1.66,0-3-1.34-3-3s1.34-3,3-3,3,1.34,3,3-1.34,3-3,3Z"/>
  <path id="Path_720" data-name="Path 720" class="gdp" d="m1137.36,18c-1.66,0-3-1.34-3-3s1.34-3,3-3,3,1.34,3,3-1.34,3-3,3Z"/>
  <path id="Path_721" data-name="Path 721" class="gdp" d="m1137.36,7.34c-1.66,0-3-1.34-3-3s1.34-3,3-3,3,1.34,3,3-1.34,3-3,3Z"/>
  <path id="Path_722" data-name="Path 722" class="gdp" d="m1148.03,23.33c-1.66,0-3-1.34-3-3s1.34-3,3-3c1.66,0,3,1.34,3,3h0c0,1.66-1.34,3-3,3h0Z"/>
  <path id="Path_723" data-name="Path 723" class="gdp" d="m1148.03,12.67c-1.66,0-3-1.34-3-3s1.34-3,3-3h0c1.66,0,3,1.34,3,3h0c0,1.66-1.34,3-3,3h0Z"/>
  <path id="Path_724" data-name="Path 724" class="gdp" d="m1158.53,28.66c-1.66,0-3-1.34-3-3s1.34-3,3-3,3,1.34,3,3-1.34,3-3,3Z"/>
  <path id="Path_725" data-name="Path 725" class="gdp" d="m1158.53,18c-1.66,0-3-1.34-3-3s1.34-3,3-3,3,1.34,3,3-1.34,3-3,3Z"/>
  <path id="Path_726" data-name="Path 726" class="gdp" d="m1158.53,7.34c-1.66,0-3-1.34-3-3s1.34-3,3-3,3,1.34,3,3-1.34,3-3,3Z"/>
  <path id="Path_727" data-name="Path 727" class="gdp" d="m1169.2,23.33c-1.66,0-3-1.34-3-3,0-1.66,1.34-3,3-3,1.66,0,3,1.34,3,3s-1.34,3-3,3Z"/>
  <path id="Path_728" data-name="Path 728" class="gdp" d="m1169.2,12.67c-1.66,0-3-1.34-3-3,0-1.66,1.34-3,3-3,1.66,0,3,1.34,3,3h0c0,1.66-1.34,3-3,3Z"/>
  <path id="Path_729" data-name="Path 729" class="gdp" d="m713.97,28.66c-1.66,0-3-1.34-3-3s1.34-3,3-3,3,1.34,3,3-1.34,3-3,3Z"/>
  <path id="Path_730" data-name="Path 730" class="gdp" d="m713.97,18c-1.66,0-3-1.34-3-3s1.34-3,3-3,3,1.34,3,3-1.34,3-3,3Z"/>
  <path id="Path_731" data-name="Path 731" class="gdp" d="m713.97,7.34c-1.66,0-3-1.34-3-3s1.34-3,3-3,3,1.34,3,3-1.34,3-3,3Z"/>
  <path id="Path_732" data-name="Path 732" class="gdp" d="m724.64,23.33c-1.66,0-3-1.34-3-3s1.34-3,3-3,3,1.34,3,3-1.34,3-3,3Z"/>
  <path id="Path_733" data-name="Path 733" class="gdp" d="m724.64,12.67c-1.66,0-3-1.34-3-3s1.34-3,3-3h0c1.66,0,3,1.34,3,3h0c0,1.66-1.34,3-3,3Z"/>
  <path id="Path_734" data-name="Path 734" class="gdp" d="m735.14,28.66c-1.66,0-3-1.34-3-3s1.34-3,3-3,3,1.34,3,3-1.34,3-3,3Z"/>
  <path id="Path_735" data-name="Path 735" class="gdp" d="m735.14,18c-1.66,0-3-1.34-3-3s1.34-3,3-3,3,1.34,3,3-1.34,3-3,3Z"/>
  <path id="Path_736" data-name="Path 736" class="gdp" d="m735.14,7.34c-1.66,0-3-1.34-3-3s1.34-3,3-3,3,1.34,3,3-1.34,3-3,3Z"/>
  <path id="Path_737" data-name="Path 737" class="gdp" d="m745.81,23.33c-1.66,0-3-1.34-3-3s1.34-3,3-3,3,1.34,3,3-1.34,3-3,3Z"/>
  <path id="Path_738" data-name="Path 738" class="gdp" d="m745.81,12.67c-1.66,0-3-1.34-3-3s1.34-3,3-3h0c1.66,0,3,1.34,3,3h0c0,1.66-1.34,3-3,3Z"/>
  <path id="Path_739" data-name="Path 739" class="gdp" d="m756.31,28.66c-1.66,0-3-1.34-3-3s1.34-3,3-3,3,1.34,3,3c0,1.66-1.34,3-3,3Z"/>
  <path id="Path_740" data-name="Path 740" class="gdp" d="m756.31,18c-1.66,0-3-1.34-3-3s1.34-3,3-3c1.66,0,3,1.34,3,3,0,1.66-1.34,3-3,3Z"/>
  <path id="Path_741" data-name="Path 741" class="gdp" d="m756.31,7.34c-1.66,0-3-1.34-3-3s1.34-3,3-3c1.66,0,3,1.34,3,3,0,1.66-1.34,3-3,3Z"/>
  <path id="Path_742" data-name="Path 742" class="gdp" d="m766.98,23.33c-1.66,0-3-1.34-3-3s1.34-3,3-3,3,1.34,3,3-1.34,3-3,3Z"/>
  <path id="Path_743" data-name="Path 743" class="gdp" d="m766.98,12.67c-1.66,0-3-1.34-3-3s1.34-3,3-3h0c1.66,0,3,1.34,3,3,0,1.66-1.34,3-3,3Z"/>
  <path id="Path_744" data-name="Path 744" class="gdp" d="m777.48,28.66c-1.66,0-3-1.34-3-3s1.34-3,3-3,3,1.34,3,3-1.34,3-3,3Z"/>
  <path id="Path_745" data-name="Path 745" class="gdp" d="m777.48,18c-1.66,0-3-1.34-3-3s1.34-3,3-3,3,1.34,3,3c0,1.66-1.34,3-3,3Z"/>
  <path id="Path_746" data-name="Path 746" class="gdp" d="m777.48,7.34c-1.66,0-3-1.34-3-3s1.34-3,3-3c1.66,0,3,1.34,3,3,0,1.66-1.34,3-3,3Z"/>
  <path id="Path_747" data-name="Path 747" class="gdp" d="m788.15,23.33c-1.66,0-3-1.34-3-3s1.34-3,3-3,3,1.34,3,3-1.34,3-3,3Z"/>
  <path id="Path_748" data-name="Path 748" class="gdp" d="m788.15,12.67c-1.66,0-3-1.34-3-3s1.34-3,3-3h0c1.66,0,3,1.34,3,3h0c0,1.66-1.34,3-3,3Z"/>
  <path id="Path_749" data-name="Path 749" class="gdp" d="m798.65,28.66c-1.66,0-3-1.34-3-3s1.34-3,3-3,3,1.34,3,3-1.34,3-3,3Z"/>
  <path id="Path_750" data-name="Path 750" class="gdp" d="m798.65,18c-1.66,0-3-1.34-3-3s1.34-3,3-3,3,1.34,3,3-1.34,3-3,3Z"/>
  <path id="Path_751" data-name="Path 751" class="gdp" d="m798.65,7.34c-1.66,0-3-1.34-3-3,0-1.66,1.34-3,3-3s3,1.34,3,3-1.34,3-3,3Z"/>
  <path id="Path_752" data-name="Path 752" class="gdp" d="m809.32,23.33c-1.66,0-3-1.34-3-3s1.34-3,3-3,3,1.34,3,3-1.34,3-3,3Z"/>
  <path id="Path_753" data-name="Path 753" class="gdp" d="m809.32,12.67c-1.66,0-3-1.34-3-3s1.34-3,3-3h0c1.66,0,3,1.34,3,3h0c0,1.66-1.34,3-3,3Z"/>
  <path id="Path_754" data-name="Path 754" class="gdp" d="m819.82,28.66c-1.66,0-3-1.34-3-3s1.34-3,3-3,3,1.34,3,3-1.34,3-3,3Z"/>
  <path id="Path_755" data-name="Path 755" class="gdp" d="m819.82,18c-1.66,0-3-1.34-3-3s1.34-3,3-3,3,1.34,3,3-1.34,3-3,3Z"/>
  <path id="Path_756" data-name="Path 756" class="gdp" d="m819.82,7.34c-1.66,0-3-1.34-3-3s1.34-3,3-3,3,1.34,3,3c0,1.66-1.34,3-3,3Z"/>
  <path id="Path_757" data-name="Path 757" class="gdp" d="m830.49,23.33c-1.66,0-3-1.34-3-3s1.34-3,3-3,3,1.34,3,3-1.34,3-3,3Z"/>
  <path id="Path_758" data-name="Path 758" class="gdp" d="m830.49,12.67c-1.66,0-3-1.34-3-3s1.34-3,3-3h0c1.66,0,3,1.34,3,3,0,1.66-1.34,3-3,3Z"/>
  <path id="Path_759" data-name="Path 759" class="gdp" d="m840.98,28.66c-1.66,0-3-1.34-3-3s1.34-3,3-3,3,1.34,3,3-1.34,3-3,3Z"/>
  <path id="Path_760" data-name="Path 760" class="gdp" d="m840.98,18c-1.66,0-3-1.34-3-3s1.34-3,3-3,3,1.34,3,3-1.34,3-3,3Z"/>
  <path id="Path_761" data-name="Path 761" class="gdp" d="m840.98,7.34c-1.66,0-3-1.34-3-3s1.34-3,3-3,3,1.34,3,3-1.34,3-3,3Z"/>
  <path id="Path_762" data-name="Path 762" class="gdp" d="m851.65,23.33c-1.66,0-3-1.34-3-3s1.34-3,3-3,3,1.34,3,3-1.34,3-3,3Z"/>
  <path id="Path_763" data-name="Path 763" class="gdp" d="m851.65,12.67c-1.66,0-3-1.34-3-3s1.34-3,3-3h0c1.66,0,3,1.34,3,3h0c0,1.66-1.34,3-3,3Z"/>
  <path id="Path_764" data-name="Path 764" class="gdp" d="m862.16,28.66c-1.66,0-3-1.34-3-3s1.34-3,3-3,3,1.34,3,3-1.34,3-3,3Z"/>
  <path id="Path_765" data-name="Path 765" class="gdp" d="m862.16,18c-1.66,0-3-1.34-3-3s1.34-3,3-3,3,1.34,3,3-1.34,3-3,3Z"/>
  <path id="Path_766" data-name="Path 766" class="gdp" d="m862.16,7.34c-1.66,0-3-1.34-3-3s1.34-3,3-3,3,1.34,3,3-1.34,3-3,3Z"/>
  <path id="Path_767" data-name="Path 767" class="gdp" d="m872.83,23.33c-1.66,0-3-1.34-3-3s1.34-3,3-3,3,1.34,3,3-1.34,3-3,3Z"/>
  <path id="Path_768" data-name="Path 768" class="gdp" d="m872.83,12.67c-1.66,0-3-1.34-3-3s1.34-3,3-3h0c1.66,0,3,1.34,3,3,0,1.66-1.34,3-3,3Z"/>
  <path id="Path_769" data-name="Path 769" class="gdp" d="m883.33,28.66c-1.66,0-3-1.34-3-3s1.34-3,3-3,3,1.34,3,3-1.34,3-3,3Z"/>
  <path id="Path_770" data-name="Path 770" class="gdp" d="m883.33,18c-1.66,0-3-1.34-3-3s1.34-3,3-3,3,1.34,3,3-1.34,3-3,3Z"/>
  <path id="Path_771" data-name="Path 771" class="gdp" d="m883.33,7.34c-1.66,0-3-1.34-3-3s1.34-3,3-3,3,1.34,3,3-1.34,3-3,3Z"/>
  <path id="Path_772" data-name="Path 772" class="gdp" d="m894,23.33c-1.66,0-3-1.34-3-3s1.34-3,3-3c1.66,0,3,1.34,3,3,0,1.66-1.34,3-3,3Z"/>
  <path id="Path_773" data-name="Path 773" class="gdp" d="m894,12.67c-1.66,0-3-1.34-3-3s1.34-3,3-3h0c1.66,0,3,1.34,3,3,0,1.66-1.34,3-3,3Z"/>
  <path id="Path_774" data-name="Path 774" class="gdp" d="m904.49,28.66c-1.66,0-3-1.34-3-3s1.34-3,3-3,3,1.34,3,3-1.34,3-3,3Z"/>
  <path id="Path_775" data-name="Path 775" class="gdp" d="m904.49,18c-1.66,0-3-1.34-3-3s1.34-3,3-3,3,1.34,3,3-1.34,3-3,3Z"/>
  <path id="Path_776" data-name="Path 776" class="gdp" d="m904.49,7.34c-1.66,0-3-1.34-3-3s1.34-3,3-3,3,1.34,3,3-1.34,3-3,3Z"/>
  <path id="Path_777" data-name="Path 777" class="gdp" d="m915.16,23.33c-1.66,0-3-1.34-3-3s1.34-3,3-3,3,1.34,3,3-1.34,3-3,3Z"/>
  <path id="Path_778" data-name="Path 778" class="gdp" d="m915.16,12.67c-1.66,0-3-1.34-3-3,0-1.66,1.34-3,3-3,1.66,0,3,1.34,3,3h0c0,1.66-1.34,3-3,3Z"/>
  <path id="Path_779" data-name="Path 779" class="gdp" d="m925.67,28.66c-1.66,0-3-1.34-3-3,0-1.66,1.34-3,3-3s3,1.34,3,3-1.34,3-3,3Z"/>
  <path id="Path_780" data-name="Path 780" class="gdp" d="m925.67,18c-1.66,0-3-1.34-3-3,0-1.66,1.34-3,3-3,1.66,0,3,1.34,3,3s-1.34,3-3,3Z"/>
  <path id="Path_781" data-name="Path 781" class="gdp" d="m925.67,7.34c-1.66,0-3-1.34-3-3,0-1.66,1.34-3,3-3,1.66,0,3,1.34,3,3s-1.34,3-3,3Z"/>
  <path id="Path_782" data-name="Path 782" class="gdp" d="m936.34,17.32c1.66,0,3,1.34,3,3,0,1.66-1.34,3-3,3s-3-1.34-3-3,1.34-3,3-3Z"/>
  <path id="Path_783" data-name="Path 783" class="gdp" d="m936.34,12.67c-1.66,0-3-1.34-3-3s1.34-3,3-3h0c1.66,0,3,1.34,3,3,0,1.66-1.34,3-3,3Z"/>
  <path id="Path_784" data-name="Path 784" class="gdp" d="m459.93,28.66c-1.66,0-3-1.34-3-3s1.34-3,3-3,3,1.34,3,3-1.34,3-3,3Z"/>
  <path id="Path_785" data-name="Path 785" class="gdp" d="m459.93,18c-1.66,0-3-1.34-3-3s1.34-3,3-3,3,1.34,3,3-1.34,3-3,3Z"/>
  <path id="Path_786" data-name="Path 786" class="gdp" d="m459.93,7.34c-1.66,0-3-1.34-3-3s1.34-3,3-3,3,1.34,3,3-1.34,3-3,3Z"/>
  <path id="Path_787" data-name="Path 787" class="gdp" d="m470.6,23.33c-1.66,0-3-1.34-3-3s1.34-3,3-3,3,1.34,3,3-1.34,3-3,3Z"/>
  <path id="Path_788" data-name="Path 788" class="gdp" d="m470.6,12.67c-1.66,0-3-1.34-3-3s1.34-3,3-3h0c1.66,0,3,1.34,3,3,0,1.66-1.34,3-3,3Z"/>
  <path id="Path_789" data-name="Path 789" class="gdp" d="m481.1,28.66c-1.66,0-3-1.34-3-3s1.34-3,3-3,3,1.34,3,3-1.34,3-3,3Z"/>
  <path id="Path_790" data-name="Path 790" class="gdp" d="m481.1,18c-1.66,0-3-1.34-3-3s1.34-3,3-3,3,1.34,3,3-1.34,3-3,3Z"/>
  <path id="Path_791" data-name="Path 791" class="gdp" d="m481.1,7.34c-1.66,0-3-1.34-3-3s1.34-3,3-3,3,1.34,3,3-1.34,3-3,3Z"/>
  <path id="Path_792" data-name="Path 792" class="gdp" d="m491.77,23.33c-1.66,0-3-1.34-3-3s1.34-3,3-3,3,1.34,3,3-1.34,3-3,3Z"/>
  <path id="Path_793" data-name="Path 793" class="gdp" d="m491.77,12.67c-1.66,0-3-1.34-3-3s1.34-3,3-3h0c1.66,0,3,1.34,3,3h0c0,1.66-1.34,3-3,3Z"/>
  <path id="Path_794" data-name="Path 794" class="gdp" d="m502.27,28.66c-1.66,0-3-1.34-3-3s1.34-3,3-3,3,1.34,3,3-1.34,3-3,3Z"/>
  <path id="Path_795" data-name="Path 795" class="gdp" d="m502.27,18c-1.66,0-3-1.34-3-3,0-1.66,1.34-3,3-3s3,1.34,3,3-1.34,3-3,3Z"/>
  <path id="Path_796" data-name="Path 796" class="gdp" d="m502.27,7.34c-1.66,0-3-1.34-3-3,0-1.66,1.34-3,3-3,1.66,0,3,1.34,3,3s-1.34,3-3,3Z"/>
  <path id="Path_797" data-name="Path 797" class="gdp" d="m512.94,23.33c-1.66,0-3-1.34-3-3s1.34-3,3-3,3,1.34,3,3-1.34,3-3,3Z"/>
  <path id="Path_798" data-name="Path 798" class="gdp" d="m512.94,12.67c-1.66,0-3-1.34-3-3s1.34-3,3-3h0c1.66,0,3,1.34,3,3h0c0,1.66-1.34,3-3,3Z"/>
  <path id="Path_799" data-name="Path 799" class="gdp" d="m523.44,28.66c-1.66,0-3-1.34-3-3s1.34-3,3-3c1.66,0,3,1.34,3,3h0c0,1.66-1.34,3-3,3h0Z"/>
  <path id="Path_800" data-name="Path 800" class="gdp" d="m523.44,18c-1.66,0-3-1.34-3-3s1.34-3,3-3c1.66,0,3,1.34,3,3h0c0,1.66-1.34,3-3,3h0Z"/>
  <path id="Path_801" data-name="Path 801" class="gdp" d="m523.44,7.34c-1.66,0-3-1.34-3-3,0-1.66,1.34-3,3-3,1.66,0,3,1.34,3,3h0c0,1.66-1.34,3-3,3h0Z"/>
  <path id="Path_802" data-name="Path 802" class="gdp" d="m534.11,23.33c-1.66,0-3-1.34-3-3s1.34-3,3-3,3,1.34,3,3-1.34,3-3,3Z"/>
  <path id="Path_803" data-name="Path 803" class="gdp" d="m534.11,12.67c-1.66,0-3-1.34-3-3s1.34-3,3-3h0c1.66,0,3,1.34,3,3h0c0,1.66-1.34,3-3,3Z"/>
  <path id="Path_804" data-name="Path 804" class="gdp" d="m544.61,28.66c-1.66,0-3-1.34-3-3s1.34-3,3-3c1.66,0,3,1.34,3,3h0c0,1.66-1.34,3-3,3h0Z"/>
  <path id="Path_805" data-name="Path 805" class="gdp" d="m544.61,18c-1.66,0-3-1.34-3-3s1.34-3,3-3c1.66,0,3,1.34,3,3h0c0,1.66-1.34,3-3,3h0Z"/>
  <path id="Path_806" data-name="Path 806" class="gdp" d="m544.61,7.34c-1.66,0-3-1.34-3-3s1.34-3,3-3c1.66,0,3,1.34,3,3h0c0,1.66-1.34,3-3,3h0Z"/>
  <path id="Path_807" data-name="Path 807" class="gdp" d="m555.28,23.33c-1.66,0-3-1.34-3-3s1.34-3,3-3c1.66,0,3,1.34,3,3,0,1.66-1.34,3-3,3Z"/>
  <path id="Path_808" data-name="Path 808" class="gdp" d="m555.28,12.67c-1.66,0-3-1.34-3-3,0-1.66,1.34-3,3-3,1.66,0,3,1.34,3,3,0,1.66-1.34,3-3,3Z"/>
  <path id="Path_809" data-name="Path 809" class="gdp" d="m565.78,28.66c-1.66,0-3-1.34-3-3s1.34-3,3-3,3,1.34,3,3-1.34,3-3,3Z"/>
  <path id="Path_810" data-name="Path 810" class="gdp" d="m565.78,18c-1.66,0-3-1.34-3-3s1.34-3,3-3,3,1.34,3,3-1.34,3-3,3Z"/>
  <path id="Path_811" data-name="Path 811" class="gdp" d="m565.78,7.34c-1.66,0-3-1.34-3-3s1.34-3,3-3,3,1.34,3,3-1.34,3-3,3Z"/>
  <path id="Path_812" data-name="Path 812" class="gdp" d="m576.45,23.33c-1.66,0-3-1.34-3-3,0-1.66,1.34-3,3-3,1.66,0,3,1.34,3,3s-1.34,3-3,3Z"/>
  <path id="Path_813" data-name="Path 813" class="gdp" d="m576.45,12.67c-1.66,0-3-1.34-3-3,0-1.66,1.34-3,3-3,1.66,0,3,1.34,3,3h0c0,1.66-1.34,3-3,3Z"/>
  <path id="Path_814" data-name="Path 814" class="gdp" d="m586.95,28.66c-1.66,0-3-1.34-3-3s1.34-3,3-3,3,1.34,3,3-1.34,3-3,3Z"/>
  <path id="Path_815" data-name="Path 815" class="gdp" d="m586.95,18c-1.66,0-3-1.34-3-3,0-1.66,1.34-3,3-3s3,1.34,3,3-1.34,3-3,3Z"/>
  <path id="Path_816" data-name="Path 816" class="gdp" d="m586.95,7.34c-1.66,0-3-1.34-3-3,0-1.66,1.34-3,3-3,1.66,0,3,1.34,3,3s-1.34,3-3,3Z"/>
  <path id="Path_817" data-name="Path 817" class="gdp" d="m597.62,23.33c-1.66,0-3-1.34-3-3s1.34-3,3-3,3,1.34,3,3-1.34,3-3,3Z"/>
  <path id="Path_818" data-name="Path 818" class="gdp" d="m597.62,12.67c-1.66,0-3-1.34-3-3s1.34-3,3-3h0c1.66,0,3,1.34,3,3h0c0,1.66-1.34,3-3,3Z"/>
  <path id="Path_819" data-name="Path 819" class="gdp" d="m608.12,28.66c-1.66,0-3-1.34-3-3s1.34-3,3-3,3,1.34,3,3-1.34,3-3,3Z"/>
  <path id="Path_820" data-name="Path 820" class="gdp" d="m608.12,18c-1.66,0-3-1.34-3-3s1.34-3,3-3,3,1.34,3,3-1.34,3-3,3Z"/>
  <path id="Path_821" data-name="Path 821" class="gdp" d="m608.12,7.34c-1.66,0-3-1.34-3-3s1.34-3,3-3,3,1.34,3,3-1.34,3-3,3Z"/>
  <path id="Path_822" data-name="Path 822" class="gdp" d="m618.79,23.33c-1.66,0-3-1.34-3-3,0-1.66,1.34-3,3-3,1.66,0,3,1.34,3,3s-1.34,3-3,3Z"/>
  <path id="Path_823" data-name="Path 823" class="gdp" d="m618.79,12.67c-1.66,0-3-1.34-3-3,0-1.66,1.34-3,3-3,1.66,0,3,1.34,3,3h0c0,1.66-1.34,3-3,3Z"/>
  <path id="Path_824" data-name="Path 824" class="gdp" d="m629.29,28.66c-1.66,0-3-1.34-3-3h0c0-1.66,1.34-3,3-3h0c1.66,0,3,1.34,3,3s-1.34,3-3,3Z"/>
  <path id="Path_825" data-name="Path 825" class="gdp" d="m629.29,18c-1.66,0-3-1.34-3-3,0-1.66,1.34-3,3-3h0c1.66,0,3,1.34,3,3s-1.34,3-3,3Z"/>
  <path id="Path_826" data-name="Path 826" class="gdp" d="m629.29,7.34c-1.66,0-3-1.34-3-3,0-1.66,1.35-3,3-3,1.66,0,3,1.34,3,3s-1.34,3-3,3Z"/>
  <path id="Path_827" data-name="Path 827" class="gdp" d="m639.96,23.33c-1.66,0-3-1.34-3-3,0-1.66,1.34-3,3-3,1.66,0,3,1.34,3,3s-1.34,3-3,3Z"/>
  <path id="Path_828" data-name="Path 828" class="gdp" d="m639.96,12.67c-1.66,0-3-1.34-3-3,0-1.66,1.34-3,3-3,1.66,0,3,1.34,3,3h0c0,1.66-1.34,3-3,3Z"/>
  <path id="Path_829" data-name="Path 829" class="gdp" d="m650.46,28.66c-1.66,0-3-1.34-3-3s1.34-3,3-3,3,1.34,3,3-1.34,3-3,3Z"/>
  <path id="Path_830" data-name="Path 830" class="gdp" d="m650.46,18c-1.66,0-3-1.34-3-3s1.34-3,3-3,3,1.34,3,3-1.34,3-3,3Z"/>
  <path id="Path_831" data-name="Path 831" class="gdp" d="m650.46,7.34c-1.66,0-3-1.34-3-3s1.34-3,3-3,3,1.34,3,3-1.34,3-3,3Z"/>
  <path id="Path_832" data-name="Path 832" class="gdp" d="m661.13,23.33c-1.66,0-3-1.34-3-3s1.34-3,3-3,3,1.34,3,3-1.34,3-3,3Z"/>
  <path id="Path_833" data-name="Path 833" class="gdp" d="m661.13,12.67c-1.66,0-3-1.34-3-3s1.34-3,3-3h0c1.66,0,3,1.34,3,3h0c0,1.66-1.34,3-3,3Z"/>
  <path id="Path_834" data-name="Path 834" class="gdp" d="m671.63,28.66c-1.66,0-3-1.34-3-3s1.34-3,3-3,3,1.34,3,3-1.34,3-3,3Z"/>
  <path id="Path_835" data-name="Path 835" class="gdp" d="m671.63,18c-1.66,0-3-1.34-3-3s1.34-3,3-3,3,1.34,3,3-1.34,3-3,3Z"/>
  <path id="Path_836" data-name="Path 836" class="gdp" d="m671.63,7.34c-1.66,0-3-1.34-3-3s1.34-3,3-3,3,1.34,3,3-1.34,3-3,3Z"/>
  <path id="Path_837" data-name="Path 837" class="gdp" d="m682.3,23.33c-1.66,0-3-1.34-3-3s1.34-3,3-3,3,1.34,3,3-1.34,3-3,3Z"/>
  <path id="Path_838" data-name="Path 838" class="gdp" d="m682.3,12.67c-1.66,0-3-1.34-3-3s1.34-3,3-3h0c1.66,0,3,1.34,3,3h0c0,1.66-1.34,3-3,3Z"/>
  <path id="Path_839" data-name="Path 839" class="gdp" d="m692.8,28.66c-1.66,0-3-1.34-3-3s1.34-3,3-3,3,1.34,3,3-1.34,3-3,3Z"/>
  <path id="Path_840" data-name="Path 840" class="gdp" d="m692.8,18c-1.66,0-3-1.34-3-3s1.34-3,3-3,3,1.34,3,3-1.34,3-3,3Z"/>
  <path id="Path_841" data-name="Path 841" class="gdp" d="m692.8,7.34c-1.66,0-3-1.34-3-3s1.34-3,3-3,3,1.34,3,3-1.34,3-3,3Z"/>
  <path id="Path_842" data-name="Path 842" class="gdp" d="m703.46,23.33c-1.66,0-3-1.34-3-3s1.34-3,3-3,3,1.34,3,3-1.34,3-3,3Z"/>
  <path id="Path_843" data-name="Path 843" class="gdp" d="m703.46,12.67c-1.66,0-3-1.34-3-3s1.34-3,3-3h0c1.66,0,3,1.34,3,3h0c0,1.66-1.34,3-3,3Z"/>
  <path id="Path_844" data-name="Path 844" class="gdp" d="m248.24,28.66c-1.66,0-3-1.34-3-3s1.34-3,3-3,3,1.34,3,3-1.34,3-3,3Z"/>
  <path id="Path_845" data-name="Path 845" class="gdp" d="m248.24,18c-1.66,0-3-1.34-3-3s1.34-3,3-3,3,1.34,3,3c0,1.66-1.34,3-3,3Z"/>
  <path id="Path_846" data-name="Path 846" class="gdp" d="m248.24,7.34c-1.66,0-3-1.34-3-3s1.34-3,3-3c1.66,0,3,1.34,3,3,0,1.66-1.34,3-3,3Z"/>
  <path id="Path_847" data-name="Path 847" class="gdp" d="m258.9,23.33c-1.66,0-3-1.34-3-3s1.34-3,3-3,3,1.34,3,3-1.34,3-3,3Z"/>
  <path id="Path_848" data-name="Path 848" class="gdp" d="m258.9,12.67c-1.66,0-3-1.34-3-3s1.34-3,3-3h0c1.66,0,3,1.34,3,3h0c0,1.66-1.34,3-3,3Z"/>
  <path id="Path_849" data-name="Path 849" class="gdp" d="m269.4,28.66c-1.66,0-3-1.34-3-3s1.34-3,3-3,3,1.34,3,3-1.34,3-3,3Z"/>
  <path id="Path_850" data-name="Path 850" class="gdp" d="m269.4,18c-1.66,0-3-1.34-3-3s1.34-3,3-3,3,1.34,3,3-1.34,3-3,3Z"/>
  <path id="Path_851" data-name="Path 851" class="gdp" d="m269.4,7.34c-1.66,0-3-1.34-3-3s1.34-3,3-3,3,1.34,3,3-1.34,3-3,3Z"/>
  <path id="Path_852" data-name="Path 852" class="gdp" d="m280.08,23.33c-1.66,0-3-1.34-3-3s1.34-3,3-3,3,1.34,3,3-1.34,3-3,3Z"/>
  <path id="Path_853" data-name="Path 853" class="gdp" d="m280.08,12.67c-1.66,0-3-1.34-3-3s1.34-3,3-3h0c1.66,0,3,1.34,3,3h0c0,1.66-1.34,3-3,3Z"/>
  <path id="Path_854" data-name="Path 854" class="gdp" d="m290.58,28.66c-1.66,0-3-1.34-3-3s1.34-3,3-3,3,1.34,3,3-1.34,3-3,3Z"/>
  <path id="Path_855" data-name="Path 855" class="gdp" d="m290.58,18c-1.66,0-3-1.34-3-3s1.34-3,3-3,3,1.34,3,3-1.34,3-3,3Z"/>
  <path id="Path_856" data-name="Path 856" class="gdp" d="m290.58,7.34c-1.66,0-3-1.34-3-3s1.34-3,3-3,3,1.34,3,3c0,1.66-1.34,3-3,3Z"/>
  <path id="Path_857" data-name="Path 857" class="gdp" d="m301.24,23.33c-1.66,0-3-1.34-3-3s1.34-3,3-3c1.66,0,3,1.34,3,3,0,1.66-1.34,3-3,3Z"/>
  <path id="Path_858" data-name="Path 858" class="gdp" d="m301.24,12.67c-1.66,0-3-1.34-3-3s1.34-3,3-3h0c1.66,0,3,1.34,3,3,0,1.66-1.34,3-3,3Z"/>
  <path id="Path_859" data-name="Path 859" class="gdp" d="m311.74,28.66c-1.66,0-3-1.34-3-3s1.34-3,3-3,3,1.34,3,3-1.34,3-3,3Z"/>
  <path id="Path_860" data-name="Path 860" class="gdp" d="m311.74,18c-1.66,0-3-1.34-3-3,0-1.66,1.34-3,3-3s3,1.34,3,3c0,1.66-1.34,3-3,3Z"/>
  <path id="Path_861" data-name="Path 861" class="gdp" d="m311.74,7.34c-1.66,0-3-1.34-3-3,0-1.66,1.34-3,3-3,1.66,0,3,1.34,3,3,0,1.66-1.34,3-3,3Z"/>
  <path id="Path_862" data-name="Path 862" class="gdp" d="m322.41,23.33c-1.66,0-3-1.34-3-3s1.34-3,3-3,3,1.34,3,3-1.34,3-3,3Z"/>
  <path id="Path_863" data-name="Path 863" class="gdp" d="m322.41,12.67c-1.66,0-3-1.34-3-3s1.34-3,3-3h0c1.66,0,3,1.34,3,3h0c0,1.66-1.34,3-3,3Z"/>
  <path id="Path_864" data-name="Path 864" class="gdp" d="m332.91,28.66c-1.66,0-3-1.34-3-3s1.34-3,3-3,3,1.34,3,3-1.34,3-3,3Z"/>
  <path id="Path_865" data-name="Path 865" class="gdp" d="m332.91,18c-1.66,0-3-1.34-3-3s1.34-3,3-3,3,1.34,3,3-1.34,3-3,3Z"/>
  <path id="Path_866" data-name="Path 866" class="gdp" d="m332.91,7.34c-1.66,0-3-1.34-3-3s1.34-3,3-3,3,1.34,3,3-1.34,3-3,3Z"/>
  <path id="Path_867" data-name="Path 867" class="gdp" d="m343.58,23.33c-1.66,0-3-1.34-3-3s1.34-3,3-3c1.66,0,3,1.34,3,3,0,1.66-1.34,3-3,3Z"/>
  <path id="Path_868" data-name="Path 868" class="gdp" d="m343.58,12.67c-1.66,0-3-1.34-3-3s1.34-3,3-3h0c1.66,0,3,1.34,3,3,0,1.66-1.34,3-3,3Z"/>
  <path id="Path_869" data-name="Path 869" class="gdp" d="m354.08,28.66c-1.66,0-3-1.34-3-3s1.34-3,3-3,3,1.34,3,3-1.34,3-3,3Z"/>
  <path id="Path_870" data-name="Path 870" class="gdp" d="m354.08,18c-1.66,0-3-1.34-3-3s1.34-3,3-3,3,1.34,3,3-1.34,3-3,3Z"/>
  <path id="Path_871" data-name="Path 871" class="gdp" d="m354.08,7.34c-1.66,0-3-1.34-3-3s1.34-3,3-3,3,1.34,3,3-1.34,3-3,3Z"/>
  <path id="Path_872" data-name="Path 872" class="gdp" d="m364.75,23.33c-1.66,0-3-1.34-3-3s1.34-3,3-3,3,1.34,3,3-1.34,3-3,3Z"/>
  <path id="Path_873" data-name="Path 873" class="gdp" d="m364.75,12.67c-1.66,0-3-1.34-3-3s1.34-3,3-3h0c1.66,0,3,1.34,3,3h0c0,1.66-1.34,3-3,3Z"/>
  <path id="Path_874" data-name="Path 874" class="gdp" d="m375.26,28.66c-1.66,0-3-1.34-3-3,0-1.66,1.34-3,3-3h0c1.66,0,3,1.34,3,3s-1.34,3-3,3Z"/>
  <path id="Path_875" data-name="Path 875" class="gdp" d="m375.26,18c-1.66,0-3-1.34-3-3,0-1.66,1.35-3,3-3,1.66,0,3,1.34,3,3s-1.34,3-3,3Z"/>
  <path id="Path_876" data-name="Path 876" class="gdp" d="m375.26,7.34c-1.66,0-3-1.34-3-3,0-1.66,1.35-3,3-3,1.66,0,3,1.34,3,3s-1.34,3-3,3Z"/>
  <path id="Path_877" data-name="Path 877" class="gdp" d="m385.92,23.33c-1.66,0-3-1.34-3-3s1.34-3,3-3,3,1.34,3,3-1.34,3-3,3Z"/>
  <path id="Path_878" data-name="Path 878" class="gdp" d="m385.92,12.67c-1.66,0-3-1.34-3-3s1.34-3,3-3h0c1.66,0,3,1.34,3,3h0c0,1.66-1.34,3-3,3Z"/>
  <path id="Path_879" data-name="Path 879" class="gdp" d="m396.42,28.66c-1.66,0-3-1.34-3-3s1.34-3,3-3,3,1.34,3,3-1.34,3-3,3Z"/>
  <path id="Path_880" data-name="Path 880" class="gdp" d="m396.42,18c-1.66,0-3-1.34-3-3s1.34-3,3-3,3,1.34,3,3-1.34,3-3,3Z"/>
  <path id="Path_881" data-name="Path 881" class="gdp" d="m396.42,7.34c-1.66,0-3-1.34-3-3s1.34-3,3-3,3,1.34,3,3-1.34,3-3,3Z"/>
  <path id="Path_882" data-name="Path 882" class="gdp" d="m407.09,23.33c-1.66,0-3-1.34-3-3s1.34-3,3-3c1.66,0,3,1.34,3,3,0,1.66-1.34,3-3,3Z"/>
  <path id="Path_883" data-name="Path 883" class="gdp" d="m407.09,12.67c-1.66,0-3-1.34-3-3s1.34-3,3-3h0c1.66,0,3,1.34,3,3,0,1.66-1.34,3-3,3Z"/>
  <path id="Path_884" data-name="Path 884" class="gdp" d="m417.59,28.66c-1.66,0-3-1.34-3-3s1.34-3,3-3,3,1.34,3,3-1.34,3-3,3Z"/>
  <path id="Path_885" data-name="Path 885" class="gdp" d="m417.59,18c-1.66,0-3-1.34-3-3s1.34-3,3-3,3,1.34,3,3-1.34,3-3,3Z"/>
  <path id="Path_886" data-name="Path 886" class="gdp" d="m417.59,7.34c-1.66,0-3-1.34-3-3,0-1.66,1.34-3,3-3s3,1.34,3,3-1.34,3-3,3Z"/>
  <path id="Path_887" data-name="Path 887" class="gdp" d="m428.26,23.33c-1.66,0-3-1.34-3-3s1.34-3,3-3c1.66,0,3,1.34,3,3,0,1.66-1.34,3-3,3Z"/>
  <path id="Path_888" data-name="Path 888" class="gdp" d="m428.26,12.67c-1.66,0-3-1.34-3-3s1.34-3,3-3h0c1.66,0,3,1.34,3,3,0,1.66-1.34,3-3,3Z"/>
  <path id="Path_889" data-name="Path 889" class="gdp" d="m438.76,28.66c-1.66,0-3-1.34-3-3s1.34-3,3-3,3,1.34,3,3-1.34,3-3,3Z"/>
  <path id="Path_890" data-name="Path 890" class="gdp" d="m438.76,18c-1.66,0-3-1.34-3-3s1.34-3,3-3,3,1.34,3,3-1.34,3-3,3Z"/>
  <path id="Path_891" data-name="Path 891" class="gdp" d="m438.76,7.34c-1.66,0-3-1.34-3-3s1.34-3,3-3,3,1.34,3,3-1.34,3-3,3Z"/>
  <path id="Path_892" data-name="Path 892" class="gdp" d="m449.43,23.33c-1.66,0-3-1.34-3-3s1.34-3,3-3,3,1.34,3,3-1.34,3-3,3Z"/>
  <path id="Path_893" data-name="Path 893" class="gdp" d="m449.43,12.67c-1.66,0-3-1.34-3-3,0-1.66,1.34-3,3-3,1.66,0,3,1.34,3,3h0c0,1.66-1.34,3-3,3Z"/>
  <path id="Path_894" data-name="Path 894" class="gdp" d="m459.93,28.66c-1.66,0-3-1.34-3-3s1.34-3,3-3,3,1.34,3,3-1.34,3-3,3Z"/>
  <path id="Path_895" data-name="Path 895" class="gdp" d="m459.93,18c-1.66,0-3-1.34-3-3s1.34-3,3-3,3,1.34,3,3-1.34,3-3,3Z"/>
  <path id="Path_896" data-name="Path 896" class="gdp" d="m459.93,7.34c-1.66,0-3-1.34-3-3,0-1.66,1.34-3,3-3s3,1.34,3,3-1.34,3-3,3Z"/>
  <path id="Path_897" data-name="Path 897" class="gdp" d="m470.6,17.32c1.66,0,3,1.34,3,3s-1.34,3-3,3-3-1.34-3-3,1.34-3,3-3Z"/>
  <path id="Path_898" data-name="Path 898" class="gdp" d="m470.6,12.67c-1.66,0-3-1.34-3-3s1.34-3,3-3h0c1.66,0,3,1.34,3,3h0c0,1.66-1.34,3-3,3Z"/>
  <path id="Path_902" data-name="Path 902" class="gdp" d="m4.87,23.33c-1.66,0-3-1.34-3-3s1.34-3,3-3c1.66,0,3,1.34,3,3,0,1.66-1.34,3-3,3Z"/>
  <path id="Path_903" data-name="Path 903" class="gdp" d="m4.87,12.67c-1.66,0-3-1.34-3-3s1.34-3,3-3h0c1.66,0,3,1.34,3,3,0,1.66-1.34,3-3,3Z"/>
  <path id="Path_904" data-name="Path 904" class="gdp" d="m15.37,28.66c-1.66,0-3-1.34-3-3s1.34-3,3-3,3,1.34,3,3-1.34,3-3,3Z"/>
  <path id="Path_905" data-name="Path 905" class="gdp" d="m15.37,18c-1.66,0-3-1.34-3-3s1.34-3,3-3,3,1.34,3,3c0,1.66-1.34,3-3,3Z"/>
  <path id="Path_906" data-name="Path 906" class="gdp" d="m15.37,7.34c-1.66,0-3-1.34-3-3s1.34-3,3-3c1.66,0,3,1.34,3,3,0,1.66-1.34,3-3,3Z"/>
  <path id="Path_907" data-name="Path 907" class="gdp" d="m26.04,23.33c-1.66,0-3-1.34-3-3s1.34-3,3-3c1.66,0,3,1.34,3,3,0,1.66-1.34,3-3,3Z"/>
  <path id="Path_908" data-name="Path 908" class="gdp" d="m26.04,12.67c-1.66,0-3-1.34-3-3s1.34-3,3-3h0c1.66,0,3,1.34,3,3,0,1.66-1.34,3-3,3Z"/>
  <path id="Path_909" data-name="Path 909" class="gdp" d="m36.54,28.66c-1.66,0-3-1.34-3-3s1.34-3,3-3,3,1.34,3,3-1.34,3-3,3Z"/>
  <path id="Path_910" data-name="Path 910" class="gdp" d="m36.54,18c-1.66,0-3-1.34-3-3,0-1.66,1.34-3,3-3s3,1.34,3,3-1.34,3-3,3Z"/>
  <path id="Path_911" data-name="Path 911" class="gdp" d="m36.54,7.34c-1.66,0-3-1.34-3-3,0-1.66,1.34-3,3-3,1.66,0,3,1.34,3,3s-1.34,3-3,3Z"/>
  <path id="Path_912" data-name="Path 912" class="gdp" d="m47.21,23.33c-1.66,0-3-1.34-3-3s1.34-3,3-3c1.66,0,3,1.34,3,3,0,1.66-1.34,3-3,3Z"/>
  <path id="Path_913" data-name="Path 913" class="gdp" d="m47.21,12.67c-1.66,0-3-1.34-3-3s1.34-3,3-3h0c1.66,0,3,1.34,3,3,0,1.66-1.34,3-3,3Z"/>
  <path id="Path_914" data-name="Path 914" class="gdp" d="m57.71,28.66c-1.66,0-3-1.34-3-3s1.34-3,3-3,3,1.34,3,3-1.34,3-3,3Z"/>
  <path id="Path_915" data-name="Path 915" class="gdp" d="m57.71,18c-1.66,0-3-1.34-3-3,0-1.66,1.34-3,3-3s3,1.34,3,3-1.34,3-3,3Z"/>
  <path id="Path_916" data-name="Path 916" class="gdp" d="m57.71,7.34c-1.66,0-3-1.34-3-3,0-1.66,1.34-3,3-3,1.66,0,3,1.34,3,3s-1.34,3-3,3Z"/>
  <path id="Path_917" data-name="Path 917" class="gdp" d="m68.38,23.33c-1.66,0-3-1.34-3-3s1.34-3,3-3,3,1.34,3,3-1.34,3-3,3Z"/>
  <path id="Path_918" data-name="Path 918" class="gdp" d="m68.38,12.67c-1.66,0-3-1.34-3-3s1.34-3,3-3h0c1.66,0,3,1.34,3,3h0c0,1.66-1.34,3-3,3Z"/>
  <path id="Path_919" data-name="Path 919" class="gdp" d="m78.88,28.66c-1.66,0-3-1.34-3-3s1.34-3,3-3,3,1.34,3,3-1.34,3-3,3Z"/>
  <path id="Path_920" data-name="Path 920" class="gdp" d="m78.88,18c-1.66,0-3-1.34-3-3,0-1.66,1.34-3,3-3s3,1.34,3,3-1.34,3-3,3Z"/>
  <path id="Path_921" data-name="Path 921" class="gdp" d="m78.88,7.34c-1.66,0-3-1.34-3-3,0-1.66,1.34-3,3-3,1.66,0,3,1.34,3,3s-1.34,3-3,3Z"/>
  <path id="Path_922" data-name="Path 922" class="gdp" d="m89.55,23.33c-1.66,0-3-1.34-3-3s1.34-3,3-3,3,1.34,3,3-1.34,3-3,3Z"/>
  <path id="Path_923" data-name="Path 923" class="gdp" d="m89.55,12.67c-1.66,0-3-1.34-3-3s1.34-3,3-3h0c1.66,0,3,1.34,3,3h0c0,1.66-1.34,3-3,3Z"/>
  <path id="Path_924" data-name="Path 924" class="gdp" d="m100.05,28.66c-1.66,0-3-1.34-3-3s1.34-3,3-3,3,1.34,3,3-1.34,3-3,3Z"/>
  <path id="Path_925" data-name="Path 925" class="gdp" d="m100.05,18c-1.66,0-3-1.34-3-3,0-1.66,1.34-3,3-3s3,1.34,3,3-1.34,3-3,3Z"/>
  <path id="Path_926" data-name="Path 926" class="gdp" d="m100.05,7.34c-1.66,0-3-1.34-3-3,0-1.66,1.34-3,3-3,1.66,0,3,1.34,3,3s-1.34,3-3,3Z"/>
  <path id="Path_927" data-name="Path 927" class="gdp" d="m110.72,23.33c-1.66,0-3-1.34-3-3,0-1.66,1.34-3,3-3,1.66,0,3,1.34,3,3s-1.34,3-3,3Z"/>
  <path id="Path_928" data-name="Path 928" class="gdp" d="m110.72,12.67c-1.66,0-3-1.34-3-3,0-1.66,1.34-3,3-3,1.66,0,3,1.34,3,3h0c0,1.66-1.34,3-3,3Z"/>
  <path id="Path_929" data-name="Path 929" class="gdp" d="m121.22,28.66c-1.66,0-3-1.34-3-3s1.34-3,3-3,3,1.34,3,3-1.34,3-3,3Z"/>
  <path id="Path_930" data-name="Path 930" class="gdp" d="m121.22,18c-1.66,0-3-1.34-3-3s1.34-3,3-3,3,1.34,3,3-1.34,3-3,3Z"/>
  <path id="Path_931" data-name="Path 931" class="gdp" d="m121.22,7.34c-1.66,0-3-1.34-3-3s1.34-3,3-3,3,1.34,3,3-1.34,3-3,3Z"/>
  <path id="Path_932" data-name="Path 932" class="gdp" d="m131.89,23.33c-1.66,0-3-1.34-3-3s1.34-3,3-3,3,1.34,3,3-1.34,3-3,3Z"/>
  <path id="Path_933" data-name="Path 933" class="gdp" d="m131.89,12.67c-1.66,0-3-1.34-3-3s1.34-3,3-3h0c1.66,0,3,1.34,3,3,0,1.66-1.34,3-3,3Z"/>
  <path id="Path_934" data-name="Path 934" class="gdp" d="m142.39,28.66c-1.66,0-3-1.34-3-3s1.34-3,3-3,3,1.34,3,3-1.34,3-3,3Z"/>
  <path id="Path_935" data-name="Path 935" class="gdp" d="m142.39,18c-1.66,0-3-1.34-3-3s1.34-3,3-3,3,1.34,3,3-1.34,3-3,3Z"/>
  <path id="Path_936" data-name="Path 936" class="gdp" d="m142.39,7.34c-1.66,0-3-1.34-3-3s1.34-3,3-3,3,1.34,3,3-1.34,3-3,3Z"/>
  <path id="Path_937" data-name="Path 937" class="gdp" d="m153.06,23.33c-1.66,0-3-1.34-3-3,0-1.66,1.34-3,3-3,1.66,0,3,1.34,3,3s-1.34,3-3,3Z"/>
  <path id="Path_938" data-name="Path 938" class="gdp" d="m153.06,12.67c-1.66,0-3-1.34-3-3,0-1.66,1.34-3,3-3,1.66,0,3,1.34,3,3h0c0,1.66-1.34,3-3,3Z"/>
  <path id="Path_939" data-name="Path 939" class="gdp" d="m163.56,28.66c-1.66,0-3-1.34-3-3s1.34-3,3-3,3,1.34,3,3-1.34,3-3,3Z"/>
  <path id="Path_940" data-name="Path 940" class="gdp" d="m163.56,18c-1.66,0-3-1.34-3-3,0-1.66,1.34-3,3-3s3,1.34,3,3-1.34,3-3,3Z"/>
  <path id="Path_941" data-name="Path 941" class="gdp" d="m163.56,7.34c-1.66,0-3-1.34-3-3,0-1.66,1.34-3,3-3,1.66,0,3,1.34,3,3s-1.34,3-3,3Z"/>
  <path id="Path_942" data-name="Path 942" class="gdp" d="m174.23,23.33c-1.66,0-3-1.34-3-3,0-1.66,1.34-3,3-3,1.66,0,3,1.34,3,3s-1.34,3-3,3Z"/>
  <path id="Path_943" data-name="Path 943" class="gdp" d="m174.23,12.67c-1.66,0-3-1.34-3-3,0-1.66,1.34-3,3-3,1.66,0,3,1.34,3,3h0c0,1.66-1.34,3-3,3Z"/>
  <path id="Path_944" data-name="Path 944" class="gdp" d="m184.73,28.66c-1.66,0-3-1.34-3-3s1.34-3,3-3c1.66,0,3,1.34,3,3h0c0,1.66-1.35,3-3,3Z"/>
  <path id="Path_945" data-name="Path 945" class="gdp" d="m184.73,18c-1.66,0-3-1.34-3-3s1.34-3,3-3c1.66,0,3,1.34,3,3,0,1.66-1.35,3-3,3Z"/>
  <path id="Path_946" data-name="Path 946" class="gdp" d="m184.73,7.34c-1.66,0-3-1.34-3-3s1.34-3,3-3c1.66,0,3,1.34,3,3,0,1.66-1.35,3-3,3Z"/>
  <path id="Path_947" data-name="Path 947" class="gdp" d="m195.4,23.33c-1.66,0-3-1.34-3-3,0-1.66,1.34-3,3-3,1.66,0,3,1.34,3,3s-1.34,3-3,3Z"/>
  <path id="Path_948" data-name="Path 948" class="gdp" d="m195.4,12.67c-1.66,0-3-1.34-3-3,0-1.66,1.34-3,3-3,1.66,0,3,1.34,3,3h0c0,1.66-1.34,3-3,3Z"/>
  <path id="Path_949" data-name="Path 949" class="gdp" d="m205.9,28.66c-1.66,0-3-1.34-3-3s1.34-3,3-3,3,1.34,3,3-1.34,3-3,3Z"/>
  <path id="Path_950" data-name="Path 950" class="gdp" d="m205.9,18c-1.66,0-3-1.34-3-3s1.34-3,3-3,3,1.34,3,3-1.34,3-3,3Z"/>
  <path id="Path_951" data-name="Path 951" class="gdp" d="m205.9,7.34c-1.66,0-3-1.34-3-3s1.34-3,3-3,3,1.34,3,3-1.34,3-3,3Z"/>
  <path id="Path_952" data-name="Path 952" class="gdp" d="m216.57,23.33c-1.66,0-3-1.34-3-3s1.34-3,3-3,3,1.34,3,3-1.34,3-3,3Z"/>
  <path id="Path_953" data-name="Path 953" class="gdp" d="m216.57,12.67c-1.66,0-3-1.34-3-3s1.34-3,3-3h0c1.66,0,3,1.34,3,3h0c0,1.66-1.34,3-3,3Z"/>
  <path id="Path_954" data-name="Path 954" class="gdp" d="m227.07,28.66c-1.66,0-3-1.34-3-3s1.34-3,3-3,3,1.34,3,3-1.34,3-3,3Z"/>
  <path id="Path_955" data-name="Path 955" class="gdp" d="m227.07,18c-1.66,0-3-1.34-3-3s1.34-3,3-3,3,1.34,3,3-1.34,3-3,3Z"/>
  <path id="Path_956" data-name="Path 956" class="gdp" d="m227.07,7.34c-1.66,0-3-1.34-3-3s1.34-3,3-3,3,1.34,3,3-1.34,3-3,3Z"/>
  <path id="Path_957" data-name="Path 957" class="gdp" d="m237.74,23.33c-1.66,0-3-1.34-3-3,0-1.66,1.34-3,3-3,1.66,0,3,1.34,3,3s-1.34,3-3,3Z"/>
  <path id="Path_958" data-name="Path 958" class="gdp" d="m237.74,12.67c-1.66,0-3-1.34-3-3,0-1.66,1.34-3,3-3,1.66,0,3,1.34,3,3h0c0,1.66-1.34,3-3,3Z"/>
</svg>