<svg xmlns="http://www.w3.org/2000/svg" width="16.798" height="16.799" viewBox="0 0 16.798 16.799"><path d="M615.845,700.207a4.137,4.137,0,1,0,4.137,4.137A4.142,4.142,0,0,0,615.845,700.207Zm0,6.787a2.65,2.65,0,1,1,2.65-2.65A2.653,2.653,0,0,1,615.845,706.994Z" transform="translate(-607.376 -695.945)" fill="#707070"/><path d="M614.337,708.027h-6.707a5.051,5.051,0,0,1-5.046-5.045v-6.707a5.052,5.052,0,0,1,5.046-5.046h6.707a5.052,5.052,0,0,1,5.046,5.046v6.707A5.051,5.051,0,0,1,614.337,708.027Zm-6.707-15.218a3.469,3.469,0,0,0-3.465,3.465v6.707a3.469,3.469,0,0,0,3.465,3.465h6.707a3.469,3.469,0,0,0,3.465-3.465v-6.707a3.469,3.469,0,0,0-3.465-3.465Z" transform="translate(-602.585 -691.229)" fill="#707070"/></svg>