<svg xmlns="http://www.w3.org/2000/svg" width="157.049" height="157.049" viewBox="0 0 157.049 157.049"><g transform="translate(-881.148 -552.684)"><path d="M274.156,207.637l-3.334,1.69,5.02,2.9-.217-3.988a15.921,15.921,0,0,0,6.7-5.971,16.137,16.137,0,0,0,1.758-9.428l-.112-.772-.725.289a14.386,14.386,0,0,0-9.087,15.281" transform="translate(694.951 406.144)" fill="#d9a75f"/><path d="M229.68,208.315l-.2,3.732,5.02-2.9-3.562-1.806a15.915,15.915,0,0,0-1.824-8.784,16.141,16.141,0,0,0-7.285-6.237l-.725-.289-.112.772a14.385,14.385,0,0,0,8.69,15.51" transform="translate(719.729 406.161)" fill="#d9a75f"/><path d="M201.883,254.577l3.131,2.042v-5.8L201.669,253a15.919,15.919,0,0,0-8.519-2.813,16.142,16.142,0,0,0-9.044,3.191l-.613.483.613.483a14.385,14.385,0,0,0,17.777.229" transform="translate(738.277 377.308)" fill="#d9a75f"/><path d="M222.691,292.915a16.146,16.146,0,0,0-1.759,9.428l.112.772.724-.289a14.386,14.386,0,0,0,9.087-15.281l3.334-1.69-5.02-2.9.217,3.988a15.923,15.923,0,0,0-6.7,5.971" transform="translate(719.757 361.052)" fill="#d9a75f"/><path d="M275.654,296.763A16.134,16.134,0,0,0,282.939,303l.724.289.112-.772a14.385,14.385,0,0,0-8.69-15.51l.2-3.732-5.02,2.9,3.562,1.806a15.918,15.918,0,0,0,1.824,8.784" transform="translate(695.227 360.894)" fill="#d9a75f"/><path d="M295.1,253.219l-3.131-2.042v5.8l3.345-2.182a15.92,15.92,0,0,0,8.519,2.813,16.144,16.144,0,0,0,9.044-3.191l.612-.483-.612-.483a14.385,14.385,0,0,0-17.777-.229" transform="translate(684.46 377.275)" fill="#d9a75f"/><path d="M248.979,220.183c.14-.228.291-.449.425-.682.2-.342.382-.688.564-1.034a78.371,78.371,0,0,0-.029-76.509c-.174-.329-.348-.658-.535-.982-.132-.228-.279-.444-.416-.668a78.479,78.479,0,0,0-135.185.012c-.135.22-.279.431-.408.656-.182.314-.351.634-.52.953a78.37,78.37,0,0,0-.029,76.566c.177.337.357.673.549,1.006.132.229.28.446.418.671a78.479,78.479,0,0,0,135.165.012M223.717,230.2a25.513,25.513,0,0,1-12.736-3.422c-.317-.183-.625-.376-.931-.57l-3.332-2.112.167,3.941c.015.362.028.725.028,1.091a25.513,25.513,0,0,1-51.025,0c0-.366.012-.729.028-1.091l.167-3.944-3.333,2.116c-.306.194-.613.386-.93.569a25.482,25.482,0,0,1-34.456-8.7q-.438-.74-.861-1.49a25.54,25.54,0,0,1,9.8-33.994c.315-.181.636-.354.958-.522l3.5-1.832-3.509-1.826c-.319-.167-.637-.338-.952-.52a25.537,25.537,0,0,1-9.826-33.954q.429-.763.874-1.515a25.483,25.483,0,0,1,34.466-8.72c.315.182.622.374.926.568l3.337,2.126-.167-3.953c-.016-.361-.028-.725-.028-1.09a25.513,25.513,0,1,1,51.025,0c0,.365-.013.729-.028,1.09l-.167,3.95,3.336-2.123c.3-.195.612-.386.928-.569a25.482,25.482,0,0,1,34.458,8.707q.457.772.9,1.555a25.539,25.539,0,0,1-9.844,33.928c-.312.181-.63.352-.949.518l-3.514,1.826,3.51,1.832c.321.168.641.341.956.522a25.542,25.542,0,0,1,9.816,33.971q-.432.769-.881,1.526A25.6,25.6,0,0,1,223.717,230.2m29.32-29.854A29.609,29.609,0,0,0,240.5,180.239a29.422,29.422,0,0,0,11.853-16.777,30.183,30.183,0,0,0,.686-3.323,74.544,74.544,0,0,1,0,40.205m-18.5-72.123a29.44,29.44,0,0,0-23.588.837,29.61,29.61,0,0,0-11.144-20.914,74.422,74.422,0,0,1,34.732,20.077M163,108.143a29.616,29.616,0,0,0-11.147,20.914,29.438,29.438,0,0,0-23.587-.837A74.423,74.423,0,0,1,163,108.143m-53.236,51.994a30.2,30.2,0,0,0,.687,3.324A29.419,29.419,0,0,0,122.3,180.239a29.612,29.612,0,0,0-12.537,20.106,74.549,74.549,0,0,1,0-40.207m18.5,72.118a29.44,29.44,0,0,0,23.586-.837A29.616,29.616,0,0,0,163,252.332a74.421,74.421,0,0,1-34.733-20.076m71.54,20.076a29.613,29.613,0,0,0,11.146-20.914,29.441,29.441,0,0,0,23.587.837A74.425,74.425,0,0,1,199.8,252.332" transform="translate(778.273 450.971)" fill="#d9a75f"/><path d="M256.14,218.129a15.237,15.237,0,0,0-5.577-20.815l-3.486-2.012-.027.047-7.74-4.469,8.713,15.092-.017-5.37.494.285a11.112,11.112,0,0,1,4.067,15.18l-1.232,2.133-47.587-27.474,32.158-18.566,4.467,7.737,3.572-2.062-4.467-7.737,4.155-2.4a9.243,9.243,0,1,0-2.062-3.573l-4.155,2.4-4.466-7.736-3.572,2.062,4.466,7.737-32.157,18.566V150.021h8.933V145.9h-8.933v-4.8a9.243,9.243,0,1,0-4.125,0v4.8h-8.934v4.125h8.934v37.133L165.4,168.588l4.466-7.737-3.572-2.062-4.467,7.736-4.155-2.4a9.244,9.244,0,1,0-2.063,3.573l4.155,2.4-4.467,7.737,3.572,2.062,4.467-7.737L195.5,190.726,147.912,218.2l-1.232-2.133a11.113,11.113,0,0,1,4.068-15.18l.494-.285-.017,5.37,8.713-15.092-7.74,4.469-.028-.047-3.486,2.012a15.237,15.237,0,0,0-5.577,20.815,2.6,2.6,0,0,1,0,2.6l-2.275,3.94h4.55a2.6,2.6,0,0,1,2.252,1.3h0a15.238,15.238,0,0,0,20.815,5.577l3.486-2.013-.027-.047,7.74-4.468H162.221l4.659,2.671-.494.285a11.112,11.112,0,0,1-15.18-4.067l-1.232-2.134L197.562,194.3v54.949H195.1a11.113,11.113,0,0,1-11.112-11.112v-.57l4.643,2.7-8.713-15.092v8.937h-.055v4.025A15.237,15.237,0,0,0,195.1,253.372a2.6,2.6,0,0,1,2.252,1.3l2.275,3.94,2.275-3.94a2.6,2.6,0,0,1,2.252-1.3,15.237,15.237,0,0,0,15.237-15.237V234.11h-.055v-8.937l-8.713,15.092,4.643-2.7v.57a11.112,11.112,0,0,1-11.112,11.112h-2.464V194.3l47.587,27.474-1.233,2.134a11.112,11.112,0,0,1-15.18,4.067l-.494-.285,4.659-2.671H219.6l7.74,4.468-.027.047,3.486,2.013a15.238,15.238,0,0,0,20.815-5.577h0a2.6,2.6,0,0,1,2.252-1.3h4.549l-2.275-3.94a2.6,2.6,0,0,1,0-2.6m-8.3-61.15a5.118,5.118,0,1,1-.463,8.558l4.053-2.34-2.062-3.572-4.053,2.34a5.123,5.123,0,0,1,2.525-4.986m-93.908,4.986-4.053-2.34-2.062,3.572,4.053,2.34a5.118,5.118,0,1,1,2.062-3.572M194.506,132.1a5.118,5.118,0,1,1,7.181,4.679V132.1h-4.125v4.68a5.122,5.122,0,0,1-3.056-4.68" transform="translate(760.05 440.482)" fill="#d9a75f"/></g></svg> 