<svg xmlns="http://www.w3.org/2000/svg" xmlns:xlink="http://www.w3.org/1999/xlink" width="94.086" height="94.086" viewBox="0 0 94.086 94.086"><defs><clipPath id="a"><rect width="94.086" height="94.086" fill="#fff"/></clipPath></defs><g transform="translate(-1383 -1516)"><g transform="translate(1383 1516)"><g clip-path="url(#a)"><path d="M155.194,91.747l-2,1.013L156.2,94.5l-.13-2.389a9.538,9.538,0,0,0,4.011-3.577,9.673,9.673,0,0,0,1.054-5.648l-.068-.462-.434.173a8.617,8.617,0,0,0-5.444,9.154" transform="translate(-102.5 -55.144)" fill="#fff"/><path d="M112.913,92.141l-.121,2.236,3.007-1.736-2.134-1.082a9.537,9.537,0,0,0-1.092-5.262,9.668,9.668,0,0,0-4.364-3.737l-.434-.173-.067.463a8.618,8.618,0,0,0,5.206,9.292" transform="translate(-72.02 -55.123)" fill="#fff"/><path d="M84.555,138.065l1.875,1.223v-3.472l-2,1.307a9.537,9.537,0,0,0-5.1-1.685,9.666,9.666,0,0,0-5.418,1.912l-.367.289.367.289a8.617,8.617,0,0,0,10.65.137" transform="translate(-49.202 -90.617)" fill="#fff"/><path d="M108.707,171.291a9.666,9.666,0,0,0-1.054,5.648l.067.463.434-.173a8.618,8.618,0,0,0,5.444-9.154l2-1.013-3.007-1.736.13,2.389a9.536,9.536,0,0,0-4.011,3.577" transform="translate(-71.984 -110.614)" fill="#fff"/><path d="M155.918,173.7a9.668,9.668,0,0,0,4.365,3.737l.434.173.067-.462a8.618,8.618,0,0,0-5.206-9.292l.121-2.236-3.007,1.736,2.134,1.082a9.537,9.537,0,0,0,1.092,5.262" transform="translate(-102.162 -110.809)" fill="#fff"/><path d="M174.36,137.272l-1.876-1.223v3.472l2-1.307a9.536,9.536,0,0,0,5.1,1.685,9.667,9.667,0,0,0,5.418-1.912l.367-.289-.367-.289a8.618,8.618,0,0,0-10.65-.137" transform="translate(-115.404 -90.658)" fill="#fff"/><path d="M87.528,70.974c.084-.137.174-.269.255-.409.118-.2.229-.412.338-.619A46.951,46.951,0,0,0,88.1,24.11c-.1-.2-.208-.394-.321-.588-.079-.136-.167-.266-.249-.4a47.015,47.015,0,0,0-80.987.007c-.081.131-.167.258-.245.392-.109.189-.21.38-.312.571a46.951,46.951,0,0,0-.017,45.869c.106.2.213.4.329.6.079.137.168.267.25.4a47.015,47.015,0,0,0,80.975.007m-15.134,6a15.289,15.289,0,0,1-7.631-2.05c-.19-.11-.374-.225-.558-.342l-2-1.265.1,2.361c.009.217.017.435.017.654a15.284,15.284,0,0,1-30.569,0c0-.219.008-.437.017-.654l.1-2.363-2,1.268c-.183.116-.367.232-.557.341A15.266,15.266,0,0,1,8.68,69.71q-.263-.443-.516-.893a15.3,15.3,0,0,1,5.872-20.365c.189-.109.381-.212.574-.313l2.1-1.1-2.1-1.094c-.192-.1-.382-.2-.571-.311A15.3,15.3,0,0,1,8.15,25.295q.257-.457.524-.907a15.266,15.266,0,0,1,20.648-5.224c.189.109.373.224.555.34l2,1.274-.1-2.368c-.009-.217-.017-.435-.017-.654a15.284,15.284,0,1,1,30.569,0c0,.219-.008.437-.017.654l-.1,2.366,2-1.272c.183-.117.367-.231.556-.341A15.266,15.266,0,0,1,85.407,24.38q.274.463.537.932a15.3,15.3,0,0,1-5.9,20.325c-.187.109-.377.211-.569.31l-2.105,1.094,2.1,1.1c.193.1.384.2.573.313A15.3,15.3,0,0,1,85.93,68.8q-.259.461-.528.914a15.336,15.336,0,0,1-13.007,7.257M89.96,59.089a17.74,17.74,0,0,0-7.511-12.044,17.628,17.628,0,0,0,7.1-10.051A18.077,18.077,0,0,0,89.961,35a44.658,44.658,0,0,1,0,24.086M78.877,15.881a17.636,17.636,0,0,0-14.131.5A17.738,17.738,0,0,0,58.069,3.853,44.587,44.587,0,0,1,78.877,15.881M36.018,3.853a17.742,17.742,0,0,0-6.677,12.53,17.636,17.636,0,0,0-14.131-.5A44.587,44.587,0,0,1,36.018,3.853M4.125,35a18.15,18.15,0,0,0,.411,1.992,17.627,17.627,0,0,0,7.1,10.051A17.741,17.741,0,0,0,4.126,59.089,44.663,44.663,0,0,1,4.125,35m11.084,43.2a17.638,17.638,0,0,0,14.131-.5,17.742,17.742,0,0,0,6.677,12.529A44.587,44.587,0,0,1,15.209,78.207M58.068,90.234a17.74,17.74,0,0,0,6.677-12.529,17.638,17.638,0,0,0,14.131.5A44.586,44.586,0,0,1,58.068,90.234" transform="translate(0 -0.001)" fill="#fff"/><path d="M103.319,76.361a9.129,9.129,0,0,0-3.341-12.47l-2.088-1.206-.017.028-4.637-2.677,5.22,9.041-.01-3.218.3.171a6.658,6.658,0,0,1,2.437,9.094L100.44,76.4,71.932,59.944,91.2,48.822l2.676,4.635,2.14-1.235-2.676-4.635,2.49-1.437a5.537,5.537,0,1,0-1.236-2.14L92.1,45.446l-2.676-4.635-2.14,1.236,2.676,4.635L70.7,57.8V35.559h5.352V33.088H70.7V30.213a5.537,5.537,0,1,0-2.471,0v2.874H62.873v2.471h5.352V57.8L48.96,46.681l2.676-4.635L49.5,40.811,46.82,45.446,44.33,44.009a5.538,5.538,0,1,0-1.236,2.14l2.49,1.437-2.676,4.635,2.14,1.235,2.676-4.635L66.99,59.944,38.481,76.4l-.738-1.278a6.657,6.657,0,0,1,2.437-9.094l.3-.171-.01,3.218,5.22-9.041-4.637,2.677-.017-.028-2.088,1.206A9.128,9.128,0,0,0,35.6,76.361a1.559,1.559,0,0,1,0,1.558L34.24,80.279h2.726a1.558,1.558,0,0,1,1.349.779A9.128,9.128,0,0,0,50.784,84.4l2.088-1.206-.016-.028,4.637-2.677H47.053l2.792,1.6-.3.171a6.657,6.657,0,0,1-9.094-2.437l-.738-1.279L68.225,62.085V95H66.749a6.657,6.657,0,0,1-6.657-6.657V88l2.781,1.617-5.22-9.041v5.354H57.62v2.411a9.128,9.128,0,0,0,9.129,9.128,1.557,1.557,0,0,1,1.349.779l1.363,2.361,1.363-2.361a1.558,1.558,0,0,1,1.349-.779A9.128,9.128,0,0,0,81.3,88.346V85.935h-.033V80.581l-5.22,9.041L78.83,88v.342A6.657,6.657,0,0,1,72.173,95H70.7V62.085L99.2,78.544l-.738,1.279a6.657,6.657,0,0,1-9.094,2.437l-.3-.171,2.791-1.6H81.428l4.637,2.677-.016.028L88.137,84.4a9.128,9.128,0,0,0,12.47-3.341,1.558,1.558,0,0,1,1.349-.779h2.725l-1.362-2.361a1.557,1.557,0,0,1,0-1.558M98.346,39.727a3.066,3.066,0,1,1-.277,5.127l2.428-1.4-1.235-2.14-2.428,1.4a3.069,3.069,0,0,1,1.513-2.987M42.088,42.714l-2.428-1.4-1.236,2.14,2.428,1.4a3.066,3.066,0,1,1,1.235-2.14M66.395,24.82a3.066,3.066,0,1,1,4.3,2.8v-2.8H68.225v2.8a3.069,3.069,0,0,1-1.831-2.8" transform="translate(-22.418 -12.902)" fill="#fff"/></g></g></g></svg>


