<svg xmlns="http://www.w3.org/2000/svg" width="149.345" height="149.354" viewBox="0 0 149.345 149.354">
  <g id="Group_579" data-name="Group 579" transform="translate(-284 -10032.645)">
    <path id="Path_1996" data-name="Path 1996" d="M1.489,150.565H73.876v72.386H1.489ZM0,224.44H75.364V149.076H0Z" transform="translate(284 9957.551)" fill="#325a51"/>
    <path id="Path_1998" data-name="Path 1998" d="M150.565,150.585h72.386v72.386H150.565Zm-1.489,73.875H224.44V149.1H149.076Z" transform="translate(208.905 9957.539)" fill="#325a51"/>
    <path id="Path_2000" data-name="Path 2000" d="M150.565,1.508h72.386V73.9H150.565Zm-1.489,73.876H224.44V.02H149.076Z" transform="translate(208.905 10032.635)" fill="#325a51"/>
    <path id="Path_2002" data-name="Path 2002" d="M1.489,1.489H73.876V73.875H1.489ZM0,75.364H75.364V0H0Z" transform="translate(284 10032.645)" fill="#325a51"/>
    <path id="Path_2003" data-name="Path 2003" d="M54.744,210.5a29.482,29.482,0,0,0,20.9,8.645v-3.494a26.048,26.048,0,0,1-22-40.013l2.731-2.731a9.032,9.032,0,0,1,13.036,6.935l-2.485,1.707,2.3,1.582a8.993,8.993,0,0,1-2.313,4.189C66.622,183.379,63,184.2,59.7,184.2a35.87,35.87,0,0,1-6.962-.806,13.782,13.782,0,0,0,6.889,6.449c-5.276,2.345-4.324,6.376-4.324,6.376a10.725,10.725,0,0,1,6.669-.073c.073,10.48,4.617,10.7,4.617,10.7-3.247-6.855,8.292-8.111,1.8-15.527a13.12,13.12,0,0,0,1.262-1.105,12.954,12.954,0,0,0,3.628-7.057l2.329-1.6-2.186-1.5A12.994,12.994,0,0,0,61.69,168.037c4.355-2.451,11.079-1.195,11.079-1.195s-.964-5.006-5.405-4.887c0,0,4.476-2.04,3.542-6.719-4.679-.934-6.719,3.542-6.719,3.542.119-4.441-4.887-5.405-4.887-5.405s1.257,6.724-1.194,11.079A13,13,0,0,0,46.09,152.723l-1.5-2.186-1.6,2.329a12.951,12.951,0,0,0-7.057,3.628,13.184,13.184,0,0,0-1.105,1.262c-7.416-6.5-8.672,5.043-15.527,1.8,0,0,.22,4.544,10.7,4.617a10.721,10.721,0,0,1-.073,6.669s4.031.953,6.376-4.324a13.784,13.784,0,0,0,6.449,6.889,35.879,35.879,0,0,1-.806-6.963c0-3.3.817-6.921-3.127-7.21a8.984,8.984,0,0,1,4.189-2.313l1.582,2.3,1.707-2.485A9.03,9.03,0,0,1,53.265,169.7L50.4,172.568A26.048,26.048,0,0,1,10.486,150.5H6.992a29.527,29.527,0,0,0,36.843,28.63l-2.05,2.05A31.128,31.128,0,0,1,5.41,150.5H1.916A34.662,34.662,0,0,0,36.54,185.118c.449,0,.894-.017,1.339-.034L25.538,197.426a4.012,4.012,0,1,0-6.531,4.4,4.081,4.081,0,0,0,.4.348,3.987,3.987,0,0,0-2.268,1.13c-1.567,1.567-.972,6.646-.972,6.646s5.079.6,6.646-.972a3.985,3.985,0,0,0,1.131-2.273,4.01,4.01,0,1,0,4.741-6.114l12.369-12.369c-.018.458-.034.917-.034,1.379a34.662,34.662,0,0,0,34.619,34.624v-3.494A31.132,31.132,0,0,1,44.97,184.31l2.057-2.057A29.578,29.578,0,0,0,54.744,210.5" transform="translate(283.291 9956.83)" fill="#325a51"/>
    <path id="Path_2004" data-name="Path 2004" d="M6.432,195.694l-4.6-7.419v9.947a5.167,5.167,0,0,0,4.6-2.528" transform="translate(283.332 9937.803)" fill="#325a51"/>
    <path id="Path_2005" data-name="Path 2005" d="M3.98,227.542c0-2.693-1.729-6.376-1.729-8.355a2.874,2.874,0,0,1,2.914-2.862c1.548,0,2.748.608,2.748,2.514a4.222,4.222,0,0,1-1.2,2.987c3.08,0,3.179-1.1,5.333-1.1,3.088,0,3.287,4.122,3.287,4.122a2.3,2.3,0,0,0,1.649-2.419c5.112.66,5.444-1.374,5.444-1.374-9.178,1.649-11.435-14.017-20.76-5.991L1.5,232.544c1.557,0,2.48-2.309,2.48-5" transform="translate(283.5 9925.467)" fill="#325a51"/>
    <path id="Path_2006" data-name="Path 2006" d="M92.619,294.438h9.947l-7.418-4.6a5.167,5.167,0,0,0-2.528,4.6" transform="translate(237.601 9886.641)" fill="#325a51"/>
    <path id="Path_2007" data-name="Path 2007" d="M59.8,257.272s-2.034.332-1.374,5.444a2.3,2.3,0,0,0-2.419,1.649s4.123.2,4.123,3.287c0,2.154-1.1,2.253-1.1,5.333a4.221,4.221,0,0,1,2.987-1.2c1.906,0,2.514,1.2,2.514,2.748a2.874,2.874,0,0,1-2.862,2.913c-1.979,0-5.662-1.728-8.355-1.728s-5,.923-5,2.48l17.479-.166c8.025-9.325-7.641-11.582-5.991-20.76" transform="translate(259.918 9903.045)" fill="#325a51"/>
    <path id="Path_2008" data-name="Path 2008" d="M1.5,262.154v3.474a15.046,15.046,0,0,1,15.029,15.029H20a18.524,18.524,0,0,0-18.5-18.5" transform="translate(283.5 9900.588)" fill="#325a51"/>
    <path id="Path_2009" data-name="Path 2009" d="M11.963,281.791c-2.949,0-2.988,2.638-5.406,2.638s-3.371-2.565-3.371-4.031S5.6,277.906,5.6,276.221s-.073-4.251-4.1-4.251V285.6H14.912s0-3.811-2.949-3.811" transform="translate(283.5 9895.643)" fill="#325a51"/>
    <path id="Path_2010" data-name="Path 2010" d="M210.5,171.377a29.482,29.482,0,0,0,8.645-20.9h-3.494a26.048,26.048,0,0,1-40.013,22l-2.731-2.731a9.032,9.032,0,0,1,6.935-13.036l1.707,2.485,1.582-2.3a8.993,8.993,0,0,1,4.189,2.313c-3.945.289-3.128,3.906-3.128,7.21a35.871,35.871,0,0,1-.806,6.962,13.782,13.782,0,0,0,6.449-6.889c2.345,5.276,6.376,4.324,6.376,4.324a10.725,10.725,0,0,1-.073-6.669c10.48-.073,10.7-4.617,10.7-4.617-6.855,3.247-8.111-8.292-15.527-1.8a13.118,13.118,0,0,0-1.105-1.262,12.954,12.954,0,0,0-7.057-3.628l-1.6-2.329-1.5,2.186a12.994,12.994,0,0,0-12.015,11.728c-2.451-4.355-1.195-11.079-1.195-11.079s-5.006.964-4.887,5.405c0,0-2.04-4.476-6.719-3.542-.934,4.679,3.542,6.719,3.542,6.719-4.441-.119-5.405,4.887-5.405,4.887s6.724-1.257,11.079,1.194a13,13,0,0,0-11.728,12.015l-2.186,1.5,2.329,1.6a12.951,12.951,0,0,0,3.628,7.057,13.184,13.184,0,0,0,1.262,1.105c-6.5,7.416,5.043,8.672,1.8,15.527,0,0,4.544-.22,4.617-10.7a10.721,10.721,0,0,1,6.669.073s.953-4.031-4.324-6.376a13.784,13.784,0,0,0,6.889-6.449,35.879,35.879,0,0,1-6.963.806c-3.3,0-6.921-.817-7.21,3.127a8.99,8.99,0,0,1-2.314-4.189l2.3-1.582-2.485-1.707a9.03,9.03,0,0,1,12.963-6.969l2.869,2.869a26.048,26.048,0,0,1-22.069,39.91v3.494a29.527,29.527,0,0,0,28.63-36.843l2.05,2.05A31.127,31.127,0,0,1,150.5,220.712v3.494a34.662,34.662,0,0,0,34.619-34.624c0-.449-.017-.894-.034-1.339l12.342,12.342a4.012,4.012,0,1,0,4.4,6.531,4.079,4.079,0,0,0,.348-.4,3.987,3.987,0,0,0,1.13,2.268c1.567,1.567,6.646.972,6.646.972s.6-5.079-.972-6.646a3.985,3.985,0,0,0-2.273-1.131,4.01,4.01,0,1,0-6.114-4.741l-12.369-12.369c.458.018.917.034,1.379.034a34.662,34.662,0,0,0,34.624-34.619H220.73a31.132,31.132,0,0,1-36.421,30.673l-2.057-2.057a29.578,29.578,0,0,0,28.251-7.717" transform="translate(208.445 9956.842)" fill="#325a51"/>
    <path id="Path_2011" data-name="Path 2011" d="M195.694,289.859l-7.419,4.6h9.947a5.167,5.167,0,0,0-2.528-4.6" transform="translate(189.415 9886.631)" fill="#325a51"/>
    <path id="Path_2012" data-name="Path 2012" d="M227.542,275.738c-2.693,0-6.376,1.729-8.355,1.729a2.874,2.874,0,0,1-2.862-2.914c0-1.548.608-2.748,2.514-2.748a4.222,4.222,0,0,1,2.987,1.2c0-3.08-1.1-3.179-1.1-5.333,0-3.088,4.122-3.287,4.122-3.287a2.3,2.3,0,0,0-2.419-1.649c.66-5.112-1.374-5.444-1.374-5.444,1.649,9.178-14.017,11.435-5.991,20.76l17.479.166c0-1.557-2.309-2.48-5-2.48" transform="translate(177.08 9903.037)" fill="#325a51"/>
    <path id="Path_2013" data-name="Path 2013" d="M294.437,198.243V188.3l-4.6,7.418a5.167,5.167,0,0,0,4.6,2.528" transform="translate(138.254 9937.791)" fill="#325a51"/>
    <path id="Path_2014" data-name="Path 2014" d="M257.272,221.076s.332,2.034,5.444,1.374a2.3,2.3,0,0,0,1.649,2.419s.2-4.123,3.287-4.123c2.154,0,2.253,1.1,5.333,1.1a4.221,4.221,0,0,1-1.2-2.987c0-1.906,1.2-2.514,2.748-2.514a2.874,2.874,0,0,1,2.913,2.862c0,1.979-1.728,5.662-1.728,8.355s.923,5,2.48,5l-.166-17.479c-9.325-8.025-11.582,7.641-20.76,5.991" transform="translate(154.659 9925.457)" fill="#325a51"/>
    <path id="Path_2015" data-name="Path 2015" d="M262.154,280.677h3.474a15.046,15.046,0,0,1,15.029-15.029v-3.474a18.524,18.524,0,0,0-18.5,18.5" transform="translate(152.2 9900.576)" fill="#325a51"/>
    <path id="Path_2016" data-name="Path 2016" d="M281.791,275.381c0,2.949,2.638,2.988,2.638,5.406s-2.565,3.371-4.031,3.371-2.492-2.418-4.178-2.418-4.251.073-4.251,4.1H285.6V272.432s-3.811,0-3.811,2.949" transform="translate(147.255 9895.408)" fill="#325a51"/>
    <path id="Path_2017" data-name="Path 2017" d="M171.357,15.618a29.482,29.482,0,0,0-20.9-8.645v3.494a26.048,26.048,0,0,1,22,40.013l-2.731,2.731A9.032,9.032,0,0,1,156.7,46.277l2.485-1.707-2.3-1.582a8.993,8.993,0,0,1,2.313-4.189c.289,3.945,3.906,3.128,7.21,3.128a35.871,35.871,0,0,1,6.962.806,13.782,13.782,0,0,0-6.889-6.449c5.276-2.345,4.324-6.376,4.324-6.376a10.725,10.725,0,0,1-6.669.073c-.073-10.48-4.617-10.7-4.617-10.7,3.247,6.855-8.292,8.111-1.8,15.527a13.122,13.122,0,0,0-1.262,1.105,12.954,12.954,0,0,0-3.628,7.057l-2.329,1.6,2.186,1.5a12.994,12.994,0,0,0,11.728,12.015c-4.355,2.451-11.079,1.195-11.079,1.195s.964,5.006,5.405,4.887c0,0-4.476,2.04-3.542,6.719,4.679.934,6.719-3.542,6.719-3.542-.119,4.441,4.887,5.405,4.887,5.405S165.546,66.025,168,61.671A13,13,0,0,0,180.012,73.4l1.5,2.186,1.6-2.329a12.951,12.951,0,0,0,7.057-3.628,13.186,13.186,0,0,0,1.105-1.261c7.416,6.5,8.672-5.043,15.527-1.8,0,0-.22-4.544-10.7-4.617a10.721,10.721,0,0,1,.073-6.669s-4.031-.953-6.376,4.324a13.784,13.784,0,0,0-6.449-6.889,35.879,35.879,0,0,1,.806,6.963c0,3.3-.817,6.921,3.127,7.21A8.99,8.99,0,0,1,183.1,69.2l-1.582-2.3-1.707,2.485a9.03,9.03,0,0,1-6.969-12.963l2.869-2.869a26.047,26.047,0,0,1,39.91,22.069h3.494a29.527,29.527,0,0,0-36.843-28.63l2.05-2.05a31.127,31.127,0,0,1,36.376,30.679h3.494A34.662,34.662,0,0,0,189.562,41c-.449,0-.894.017-1.339.034L200.564,28.7a4.012,4.012,0,1,0,6.531-4.4,4.083,4.083,0,0,0-.4-.348,3.987,3.987,0,0,0,2.268-1.13c1.567-1.567.972-6.646.972-6.646s-5.079-.6-6.646.972a3.985,3.985,0,0,0-1.131,2.273,4.01,4.01,0,1,0-4.741,6.114L185.044,37.9c.018-.458.034-.917.034-1.379A34.662,34.662,0,0,0,150.459,1.9V5.391a31.132,31.132,0,0,1,30.673,36.421l-2.057,2.057a29.578,29.578,0,0,0-7.717-28.251" transform="translate(208.465 10031.686)" fill="#325a51"/>
    <path id="Path_2018" data-name="Path 2018" d="M289.839,95.167l4.6,7.419V92.639a5.167,5.167,0,0,0-4.6,2.528" transform="translate(138.254 9985.979)" fill="#325a51"/>
    <path id="Path_2019" data-name="Path 2019" d="M275.718,53.337c0,2.693,1.729,6.376,1.729,8.355a2.874,2.874,0,0,1-2.914,2.862c-1.548,0-2.748-.608-2.748-2.514a4.222,4.222,0,0,1,1.2-2.987c-3.08,0-3.179,1.1-5.333,1.1-3.088,0-3.287-4.122-3.287-4.122a2.3,2.3,0,0,0-1.649,2.419c-5.112-.66-5.444,1.374-5.444,1.374,9.178-1.649,11.435,14.017,20.76,5.991l.166-17.479c-1.557,0-2.48,2.309-2.48,5" transform="translate(154.659 10008.295)" fill="#325a51"/>
    <path id="Path_2020" data-name="Path 2020" d="M198.223,1.854h-9.947l7.418,4.6a5.167,5.167,0,0,0,2.528-4.6" transform="translate(189.415 10031.709)" fill="#325a51"/>
    <path id="Path_2021" data-name="Path 2021" d="M221.056,22.446s2.034-.332,1.374-5.444a2.3,2.3,0,0,0,2.419-1.649s-4.123-.2-4.123-3.287c0-2.154,1.1-2.253,1.1-5.333a4.221,4.221,0,0,1-2.987,1.2c-1.906,0-2.514-1.2-2.514-2.748a2.874,2.874,0,0,1,2.862-2.913c1.979,0,5.662,1.728,8.355,1.728s5-.923,5-2.48l-17.479.166c-8.025,9.325,7.641,11.582,5.991,20.76" transform="translate(177.08 10031.877)" fill="#325a51"/>
    <path id="Path_2022" data-name="Path 2022" d="M280.657,20.023V16.549A15.046,15.046,0,0,1,265.628,1.52h-3.474a18.524,18.524,0,0,0,18.5,18.5" transform="translate(152.2 10031.877)" fill="#325a51"/>
    <path id="Path_2023" data-name="Path 2023" d="M275.361,5.331c2.949,0,2.987-2.638,5.406-2.638s3.371,2.565,3.371,4.031S281.72,9.215,281.72,10.9s.073,4.251,4.1,4.251V1.52H272.412s0,3.811,2.949,3.811" transform="translate(147.032 10031.877)" fill="#325a51"/>
    <path id="Path_2024" data-name="Path 2024" d="M15.6,54.745a29.484,29.484,0,0,0-8.645,20.9h3.494a26.048,26.048,0,0,1,40.013-22l2.731,2.731a9.032,9.032,0,0,1-6.935,13.035l-1.707-2.485-1.582,2.3a8.994,8.994,0,0,1-4.189-2.314c3.945-.288,3.128-3.905,3.128-7.21a35.871,35.871,0,0,1,.806-6.962,13.782,13.782,0,0,0-6.449,6.889c-2.345-5.276-6.376-4.324-6.376-4.324a10.727,10.727,0,0,1,.073,6.67c-10.48.073-10.7,4.617-10.7,4.617,6.855-3.247,8.112,8.292,15.527,1.8a13.119,13.119,0,0,0,1.105,1.262,12.957,12.957,0,0,0,7.057,3.628l1.6,2.329,1.5-2.186A12.994,12.994,0,0,0,58.065,61.691c2.451,4.355,1.2,11.079,1.2,11.079s5.006-.965,4.887-5.405c0,0,2.04,4.476,6.72,3.542.934-4.679-3.542-6.719-3.542-6.719,4.441.119,5.405-4.887,5.405-4.887s-6.724,1.256-11.079-1.194A13,13,0,0,0,73.379,46.091l2.186-1.5-2.329-1.6a12.951,12.951,0,0,0-3.628-7.057,13.183,13.183,0,0,0-1.262-1.105c6.5-7.416-5.043-8.672-1.8-15.527,0,0-4.544.22-4.617,10.7a10.723,10.723,0,0,1-6.669-.073s-.952,4.031,4.324,6.377A13.784,13.784,0,0,0,52.7,42.752a35.879,35.879,0,0,1,6.963-.806c3.3,0,6.921.817,7.21-3.127a8.985,8.985,0,0,1,2.313,4.188l-2.3,1.583L69.366,46.3A9.029,9.029,0,0,1,56.4,53.266L53.534,50.4A26.047,26.047,0,0,1,75.6,10.487V6.993a29.527,29.527,0,0,0-28.63,36.843l-2.05-2.05A31.127,31.127,0,0,1,75.6,5.411V1.917A34.662,34.662,0,0,0,40.984,36.541c0,.449.017.894.034,1.339L28.676,25.539a4.012,4.012,0,1,0-4.4-6.531,4.081,4.081,0,0,0-.348.4,3.987,3.987,0,0,0-1.13-2.268c-1.567-1.567-6.646-.972-6.646-.972s-.6,5.079.972,6.646A3.985,3.985,0,0,0,19.4,23.949a4.01,4.01,0,1,0,6.114,4.741L37.88,41.059c-.458-.018-.917-.034-1.379-.034A34.662,34.662,0,0,0,1.877,75.644H5.371A31.132,31.132,0,0,1,41.792,44.971l2.057,2.057A29.579,29.579,0,0,0,15.6,54.745" transform="translate(283.311 10031.678)" fill="#325a51"/>
    <path id="Path_2025" data-name="Path 2025" d="M95.147,6.433l7.419-4.6H92.619a5.167,5.167,0,0,0,2.528,4.6" transform="translate(237.601 10031.717)" fill="#325a51"/>
    <path id="Path_2026" data-name="Path 2026" d="M53.317,3.981c2.693,0,6.376-1.729,8.355-1.729a2.874,2.874,0,0,1,2.862,2.914c0,1.548-.608,2.748-2.514,2.748a4.222,4.222,0,0,1-2.987-1.2c0,3.08,1.1,3.179,1.1,5.333,0,3.088-4.122,3.287-4.122,3.287a2.3,2.3,0,0,0,2.419,1.649c-.66,5.112,1.374,5.444,1.374,5.444-1.649-9.178,14.017-11.435,5.991-20.76L48.315,1.5c0,1.557,2.309,2.48,5,2.48" transform="translate(259.918 10031.887)" fill="#325a51"/>
    <path id="Path_2027" data-name="Path 2027" d="M1.834,92.62v9.947l4.6-7.418a5.167,5.167,0,0,0-4.6-2.528" transform="translate(283.332 9985.986)" fill="#325a51"/>
    <path id="Path_2028" data-name="Path 2028" d="M22.426,59.8s-.332-2.034-5.444-1.374a2.3,2.3,0,0,0-1.649-2.419s-.2,4.123-3.287,4.123c-2.154,0-2.253-1.1-5.333-1.1a4.221,4.221,0,0,1,1.2,2.987c0,1.906-1.2,2.514-2.748,2.514a2.874,2.874,0,0,1-2.913-2.862c0-1.979,1.728-5.662,1.728-8.355s-.923-5-2.48-5l.166,17.479c9.325,8.025,11.582-7.641,20.76-5.991" transform="translate(283.5 10008.305)" fill="#325a51"/>
    <path id="Path_2029" data-name="Path 2029" d="M20,1.5H16.529A15.046,15.046,0,0,1,1.5,16.529V20A18.524,18.524,0,0,0,20,1.5" transform="translate(283.5 10031.887)" fill="#325a51"/>
    <path id="Path_2030" data-name="Path 2030" d="M5.311,11.963c0-2.949-2.638-2.988-2.638-5.406S5.237,3.186,6.7,3.186,9.2,5.6,10.881,5.6s4.251-.073,4.251-4.1H1.5V14.912s3.811,0,3.811-2.949" transform="translate(283.5 10031.887)" fill="#325a51"/>
  </g>
</svg>
