<svg xmlns="http://www.w3.org/2000/svg" width="20.409" height="16.798" viewBox="0 0 20.409 16.798"><path d="M677.91,693.243a8.421,8.421,0,0,1-2.064.588c.332-.056.819-.657,1.015-.9a3.79,3.79,0,0,0,.685-1.249c.018-.036.031-.081,0-.107a.116.116,0,0,0-.11.009,10.511,10.511,0,0,1-2.447.936.163.163,0,0,1-.169-.045,1.985,1.985,0,0,0-.214-.218,4.338,4.338,0,0,0-1.185-.727,4.134,4.134,0,0,0-1.818-.292,4.347,4.347,0,0,0-1.725.487,4.45,4.45,0,0,0-1.392,1.137,4.277,4.277,0,0,0-.831,1.665,4.512,4.512,0,0,0-.044,1.757c.013.1,0,.112-.084.1a13.073,13.073,0,0,1-8.409-4.28c-.1-.112-.151-.112-.232.008a4.263,4.263,0,0,0,.727,5.038c.165.156.334.312.517.455a4.283,4.283,0,0,1-1.622-.455c-.1-.062-.148-.027-.156.085a2.578,2.578,0,0,0,.027.481,4.311,4.311,0,0,0,2.658,3.437,2.534,2.534,0,0,0,.539.165,4.807,4.807,0,0,1-1.591.049c-.116-.022-.16.036-.116.147a4.475,4.475,0,0,0,3.343,2.8c.152.027.3.027.455.062-.009.014-.018.014-.027.027a5.29,5.29,0,0,1-2.283,1.21,8.176,8.176,0,0,1-3.468.444c-.187-.028-.226-.025-.276,0s-.007.076.054.124c.237.156.477.295.722.428a11.483,11.483,0,0,0,2.318.928,12.348,12.348,0,0,0,11.987-2.8c2.456-2.441,3.318-5.807,3.318-9.177,0-.132.156-.2.248-.274a8.1,8.1,0,0,0,1.632-1.7.516.516,0,0,0,.108-.325v-.018C677.994,693.189,677.993,693.205,677.91,693.243Z" transform="translate(-657.585 -691.229)" fill="#707070"/></svg>