<?xml version="1.0" encoding="UTF-8"?>
<svg id="Layer_1" data-name="Layer 1" xmlns="http://www.w3.org/2000/svg" viewBox="0 0 767.03 97.06">
  <defs>
    <style>
      .wp-1 {
        fill: none;
        stroke: #fff;
        stroke-miterlimit: 10;
        stroke-width: 2px;
      }
    </style>
  </defs>
  <g id="Group_547" data-name="Group 547">
    <path id="Path_3044" data-name="Path 3044" class="wp-1" d="m.35,3.01c19.16,0,19.16,7.98,38.31,7.98s19.16-7.98,38.32-7.98,19.16,7.98,38.32,7.98,19.15-7.98,38.31-7.98,19.16,7.98,38.32,7.98,19.16-7.98,38.32-7.98,19.16,7.98,38.32,7.98,19.16-7.98,38.32-7.98,19.16,7.98,38.31,7.98,19.16-7.98,38.31-7.98,19.16,7.98,38.32,7.98,19.16-7.98,38.32-7.98,19.16,7.98,38.31,7.98,19.16-7.98,38.32-7.98,19.16,7.98,38.32,7.98,19.16-7.98,38.32-7.98,19.16,7.98,38.32,7.98,19.16-7.98,38.32-7.98,19.16,7.98,38.32,7.98,19.16-7.98,38.32-7.98"/>
    <path id="Path_3045" data-name="Path 3045" class="wp-1" d="m.35,12.24c19.16,0,19.16,7.98,38.31,7.98s19.16-7.98,38.32-7.98,19.16,7.98,38.32,7.98,19.15-7.98,38.31-7.98,19.16,7.98,38.32,7.98,19.16-7.98,38.32-7.98,19.16,7.98,38.32,7.98,19.16-7.98,38.32-7.98,19.16,7.98,38.31,7.98,19.16-7.98,38.31-7.98,19.16,7.98,38.32,7.98,19.16-7.98,38.32-7.98,19.16,7.98,38.32,7.98,19.16-7.98,38.32-7.98,19.16,7.98,38.32,7.98,19.16-7.98,38.32-7.98,19.16,7.98,38.32,7.98,19.16-7.98,38.32-7.98,19.16,7.98,38.32,7.98,19.16-7.98,38.32-7.98"/>
    <path id="Path_3046" data-name="Path 3046" class="wp-1" d="m.35,21.47c19.16,0,19.16,7.98,38.31,7.98s19.16-7.98,38.32-7.98,19.16,7.98,38.32,7.98,19.15-7.98,38.31-7.98,19.16,7.98,38.32,7.98,19.16-7.98,38.32-7.98,19.16,7.98,38.32,7.98,19.16-7.98,38.32-7.98,19.16,7.98,38.31,7.98,19.16-7.98,38.31-7.98,19.16,7.98,38.32,7.98,19.16-7.98,38.32-7.98,19.16,7.98,38.32,7.98,19.16-7.98,38.32-7.98,19.16,7.98,38.32,7.98,19.16-7.98,38.32-7.98,19.16,7.98,38.32,7.98,19.16-7.98,38.32-7.98,19.16,7.98,38.32,7.98,19.16-7.98,38.32-7.98"/>
    <path id="Path_3047" data-name="Path 3047" class="wp-1" d="m.35,30.69c19.16,0,19.16,7.98,38.31,7.98s19.16-7.98,38.32-7.98,19.16,7.98,38.32,7.98,19.15-7.98,38.31-7.98,19.16,7.98,38.32,7.98,19.16-7.98,38.32-7.98,19.16,7.98,38.32,7.98,19.16-7.98,38.32-7.98,19.16,7.98,38.31,7.98,19.16-7.98,38.31-7.98,19.16,7.98,38.32,7.98,19.16-7.98,38.32-7.98,19.16,7.98,38.32,7.98,19.16-7.98,38.32-7.98,19.16,7.98,38.32,7.98,19.16-7.98,38.32-7.98,19.16,7.98,38.32,7.98,19.16-7.98,38.32-7.98,19.16,7.98,38.32,7.98,19.16-7.98,38.32-7.98"/>
    <path id="Path_3048" data-name="Path 3048" class="wp-1" d="m.35,39.92c19.16,0,19.16,7.98,38.31,7.98s19.16-7.98,38.32-7.98,19.16,7.98,38.32,7.98,19.15-7.98,38.31-7.98,19.16,7.98,38.32,7.98,19.16-7.98,38.32-7.98,19.16,7.98,38.32,7.98,19.16-7.98,38.32-7.98,19.16,7.98,38.31,7.98,19.16-7.98,38.31-7.98,19.16,7.98,38.32,7.98,19.16-7.98,38.32-7.98,19.16,7.98,38.32,7.98,19.16-7.98,38.32-7.98,19.16,7.98,38.32,7.98,19.16-7.98,38.32-7.98,19.16,7.98,38.32,7.98,19.16-7.98,38.32-7.98,19.16,7.98,38.32,7.98,19.16-7.98,38.32-7.98"/>
    <path id="Path_3049" data-name="Path 3049" class="wp-1" d="m.35,49.15c19.16,0,19.16,7.98,38.31,7.98s19.16-7.98,38.32-7.98,19.16,7.98,38.32,7.98,19.15-7.98,38.31-7.98,19.16,7.98,38.32,7.98,19.16-7.98,38.32-7.98,19.16,7.98,38.32,7.98,19.16-7.98,38.32-7.98,19.16,7.98,38.31,7.98,19.16-7.98,38.31-7.98,19.16,7.98,38.32,7.98,19.16-7.98,38.32-7.98,19.16,7.98,38.32,7.98,19.16-7.98,38.32-7.98,19.16,7.98,38.32,7.98,19.16-7.98,38.32-7.98,19.16,7.98,38.32,7.98,19.16-7.98,38.32-7.98,19.16,7.98,38.32,7.98,19.16-7.98,38.32-7.98"/>
    <path id="Path_3050" data-name="Path 3050" class="wp-1" d="m.35,58.38c19.16,0,19.16,7.98,38.31,7.98s19.16-7.98,38.32-7.98,19.16,7.98,38.32,7.98,19.15-7.98,38.31-7.98,19.16,7.98,38.32,7.98,19.16-7.98,38.32-7.98,19.16,7.98,38.32,7.98,19.16-7.98,38.32-7.98,19.16,7.98,38.31,7.98,19.16-7.98,38.31-7.98,19.16,7.98,38.32,7.98,19.16-7.98,38.32-7.98,19.16,7.98,38.32,7.98,19.16-7.98,38.32-7.98,19.16,7.98,38.32,7.98,19.16-7.98,38.32-7.98,19.16,7.98,38.32,7.98,19.16-7.98,38.32-7.98,19.16,7.98,38.32,7.98,19.16-7.98,38.32-7.98"/>
    <path id="Path_3051" data-name="Path 3051" class="wp-1" d="m.35,67.6c19.16,0,19.16,7.98,38.31,7.98s19.16-7.98,38.32-7.98,19.16,7.98,38.32,7.98,19.15-7.98,38.31-7.98,19.16,7.98,38.32,7.98,19.16-7.98,38.32-7.98,19.16,7.98,38.32,7.98,19.16-7.98,38.32-7.98,19.16,7.98,38.31,7.98,19.16-7.98,38.31-7.98,19.16,7.98,38.32,7.98,19.16-7.98,38.32-7.98,19.16,7.98,38.32,7.98,19.16-7.98,38.32-7.98,19.16,7.98,38.32,7.98,19.16-7.98,38.32-7.98,19.16,7.98,38.32,7.98,19.16-7.98,38.32-7.98,19.16,7.98,38.32,7.98,19.16-7.98,38.32-7.98"/>
    <path id="Path_3052" data-name="Path 3052" class="wp-1" d="m.35,76.83c19.16,0,19.16,7.98,38.31,7.98s19.16-7.98,38.32-7.98,19.16,7.98,38.32,7.98,19.15-7.98,38.31-7.98,19.16,7.98,38.32,7.98,19.16-7.98,38.32-7.98,19.16,7.98,38.32,7.98,19.16-7.98,38.32-7.98,19.16,7.98,38.31,7.98,19.16-7.98,38.31-7.98,19.16,7.98,38.32,7.98,19.16-7.98,38.32-7.98,19.16,7.98,38.32,7.98,19.16-7.98,38.32-7.98,19.16,7.98,38.32,7.98,19.16-7.98,38.32-7.98,19.16,7.98,38.32,7.98,19.16-7.98,38.32-7.98,19.16,7.98,38.32,7.98,19.16-7.98,38.32-7.98"/>
    <path id="Path_3053" data-name="Path 3053" class="wp-1" d="m.35,86.06c19.16,0,19.16,7.98,38.31,7.98s19.16-7.98,38.32-7.98,19.16,7.98,38.32,7.98,19.15-7.98,38.31-7.98,19.16,7.98,38.32,7.98,19.16-7.98,38.32-7.98,19.16,7.98,38.32,7.98,19.16-7.98,38.32-7.98,19.16,7.98,38.31,7.98,19.16-7.98,38.31-7.98,19.16,7.98,38.32,7.98,19.16-7.98,38.32-7.98,19.16,7.98,38.32,7.98,19.16-7.98,38.32-7.98,19.16,7.98,38.32,7.98,19.16-7.98,38.32-7.98,19.16,7.98,38.32,7.98,19.16-7.98,38.32-7.98,19.16,7.98,38.32,7.98,19.16-7.98,38.32-7.98"/>
  </g>
</svg>