<svg xmlns="http://www.w3.org/2000/svg" width="869.214" height="10.497" viewBox="0 0 869.214 10.497">
  <path id="Union_1" data-name="Union 1" d="M16293.627-6710.194c-2.359-1.651-4.588-3.216-9.107-3.216s-6.739,1.565-9.1,3.216c-2.466,1.729-5.257,3.692-10.591,3.692s-8.116-1.963-10.574-3.692c-2.36-1.651-4.585-3.216-9.092-3.216s-6.739,1.565-9.1,3.216c-2.466,1.729-5.257,3.692-10.587,3.692s-8.112-1.963-10.578-3.692c-2.356-1.651-4.585-3.216-9.092-3.216s-6.735,1.565-9.1,3.216c-2.462,1.729-5.252,3.692-10.578,3.692s-8.121-1.963-10.583-3.692c-2.36-1.651-4.585-3.216-9.092-3.216s-6.735,1.565-9.087,3.216c-2.463,1.729-5.253,3.692-10.579,3.692s-8.112-1.963-10.574-3.692c-2.356-1.655-4.581-3.216-9.079-3.216s-6.736,1.565-9.1,3.216c-2.458,1.729-5.253,3.692-10.574,3.692s-8.121-1.963-10.583-3.692c-2.352-1.655-4.581-3.216-9.088-3.216s-6.735,1.565-9.091,3.216c-2.467,1.729-5.253,3.692-10.583,3.692s-8.112-1.963-10.579-3.692c-2.355-1.651-4.584-3.216-9.091-3.216s-6.736,1.565-9.092,3.216c-2.462,1.729-5.252,3.692-10.578,3.692s-8.117-1.963-10.579-3.692c-2.352-1.651-4.576-3.216-9.088-3.216s-6.735,1.565-9.091,3.216c-2.458,1.729-5.253,3.692-10.579,3.692s-8.116-1.963-10.574-3.692c-2.355-1.651-4.581-3.216-9.092-3.216s-6.731,1.565-9.087,3.216c-2.458,1.729-5.253,3.692-10.579,3.692s-8.112-1.963-10.57-3.692c-2.355-1.655-4.58-3.216-9.087-3.216s-6.731,1.561-9.088,3.216c-2.462,1.729-5.252,3.692-10.583,3.692s-8.107-1.963-10.57-3.692c-2.352-1.651-4.576-3.216-9.083-3.216h-.065c-4.52,0-6.748,1.565-9.112,3.216-2.462,1.729-5.256,3.692-10.591,3.692s-8.124-1.963-10.591-3.692c-2.36-1.651-4.593-3.216-9.108-3.216s-6.739,1.565-9.1,3.216c-2.462,1.729-5.252,3.692-10.587,3.692s-8.116-1.963-10.578-3.692c-2.355-1.651-4.581-3.216-9.088-3.216s-6.739,1.565-9.095,3.216c-2.467,1.729-5.257,3.692-10.587,3.692s-8.116-1.963-10.583-3.692c-2.355-1.651-4.581-3.216-9.088-3.216s-6.739,1.565-9.095,3.216c-2.467,1.729-5.253,3.692-10.583,3.692s-8.116-1.963-10.583-3.692c-2.355-1.651-4.58-3.216-9.087-3.216s-6.736,1.565-9.092,3.216c-2.458,1.729-5.253,3.692-10.574,3.692s-8.116-1.963-10.575-3.692c-2.355-1.655-4.58-3.216-9.083-3.216s-6.731,1.565-9.092,3.216c-2.462,1.729-5.252,3.692-10.574,3.692s-8.12-1.963-10.583-3.692c-2.355-1.655-4.58-3.216-9.087-3.216s-6.735,1.565-9.092,3.216c-2.467,1.729-5.252,3.692-10.583,3.692s-8.116-1.963-10.582-3.692c-2.356-1.651-4.581-3.216-9.092-3.216s-6.731,1.565-9.087,3.216c-2.463,1.729-5.257,3.692-10.579,3.692s-8.116-1.963-10.579-3.692c-2.355-1.651-4.58-3.216-9.087-3.216s-6.735,1.565-9.092,3.216c-2.462,1.729-5.252,3.692-10.578,3.692s-8.116-1.963-10.579-3.692c-2.352-1.651-4.576-3.216-9.087-3.216s-6.736,1.565-9.088,3.216c-2.462,1.729-5.252,3.692-10.578,3.692s-8.112-1.963-10.575-3.692c-2.355-1.655-4.576-3.216-9.083-3.216s-6.735,1.561-9.087,3.216c-2.463,1.729-5.253,3.692-10.583,3.692s-8.108-1.963-10.57-3.692c-2.356-1.651-4.581-3.216-9.084-3.216a1.294,1.294,0,0,1-1.294-1.295,1.292,1.292,0,0,1,1.294-1.294c5.322,0,8.112,1.958,10.575,3.687,2.352,1.655,4.576,3.216,9.079,3.216s6.735-1.561,9.091-3.216c2.463-1.729,5.253-3.687,10.579-3.687s8.112,1.958,10.574,3.687c2.356,1.655,4.581,3.216,9.084,3.216s6.735-1.561,9.087-3.216c2.463-1.729,5.257-3.687,10.579-3.687s8.116,1.958,10.578,3.687c2.356,1.655,4.581,3.216,9.088,3.216s6.735-1.561,9.087-3.216c2.463-1.729,5.253-3.687,10.583-3.687s8.116,1.958,10.578,3.687c2.353,1.655,4.577,3.216,9.088,3.216s6.731-1.561,9.087-3.216c2.463-1.729,5.253-3.687,10.579-3.687s8.116,1.958,10.583,3.687c2.355,1.655,4.584,3.216,9.091,3.216s6.736-1.561,9.092-3.216c2.467-1.729,5.253-3.687,10.583-3.687s8.116,1.958,10.578,3.687c2.356,1.655,4.581,3.216,9.092,3.216s6.731-1.561,9.087-3.216c2.459-1.729,5.253-3.687,10.579-3.687s8.112,1.958,10.57,3.687c2.356,1.655,4.581,3.216,9.088,3.216s6.731-1.561,9.087-3.216c2.463-1.729,5.253-3.687,10.579-3.687s8.116,1.958,10.578,3.687c2.36,1.655,4.585,3.216,9.092,3.216s6.735-1.561,9.091-3.216c2.467-1.729,5.257-3.687,10.587-3.687s8.117,1.958,10.579,3.687c2.36,1.655,4.585,3.216,9.092,3.216s6.735-1.561,9.1-3.216c2.462-1.729,5.256-3.687,10.586-3.687s8.117,1.958,10.579,3.687c2.355,1.655,4.581,3.216,9.087,3.216s6.74-1.561,9.1-3.216c2.462-1.729,5.256-3.687,10.586-3.687s8.129,1.958,10.592,3.687c2.359,1.655,4.593,3.216,9.107,3.216s6.748-1.561,9.107-3.216c2.467-1.729,5.257-3.687,10.6-3.687h.065c5.326,0,8.112,1.958,10.574,3.687,2.356,1.655,4.581,3.216,9.079,3.216s6.736-1.561,9.092-3.216c2.462-1.729,5.257-3.687,10.579-3.687s8.116,1.958,10.574,3.687c2.355,1.655,4.58,3.216,9.083,3.216s6.736-1.561,9.092-3.216c2.458-1.729,5.252-3.687,10.574-3.687s8.121,1.958,10.579,3.687c2.355,1.655,4.58,3.216,9.087,3.216s6.736-1.561,9.092-3.216c2.458-1.729,5.252-3.687,10.578-3.687s8.117,1.958,10.579,3.687c2.352,1.655,4.581,3.216,9.088,3.216s6.735-1.561,9.087-3.216c2.462-1.729,5.252-3.687,10.583-3.687s8.116,1.958,10.582,3.687c2.356,1.655,4.581,3.216,9.088,3.216s6.735-1.561,9.092-3.216c2.466-1.729,5.256-3.687,10.582-3.687s8.116,1.958,10.579,3.687c2.355,1.655,4.58,3.216,9.092,3.216s6.731-1.561,9.087-3.216c2.462-1.729,5.253-3.687,10.583-3.687s8.107,1.958,10.57,3.687c2.352,1.655,4.576,3.216,9.083,3.216s6.735-1.561,9.088-3.216c2.462-1.729,5.252-3.687,10.578-3.687s8.116,1.958,10.583,3.687c2.355,1.655,4.58,3.216,9.092,3.216s6.731-1.561,9.087-3.216c2.467-1.729,5.261-3.687,10.587-3.687s8.116,1.958,10.583,3.687c2.355,1.655,4.58,3.216,9.087,3.216s6.74-1.561,9.1-3.216c2.467-1.729,5.257-3.687,10.587-3.687s8.12,1.958,10.583,3.687c2.352,1.655,4.576,3.216,9.083,3.216s6.744-1.561,9.1-3.216c2.467-1.729,5.257-3.687,10.587-3.687s8.129,1.958,10.591,3.687c2.364,1.655,4.6,3.216,9.112,3.216s6.748-1.561,9.107-3.216c2.463-1.729,5.257-3.687,10.591-3.687a1.3,1.3,0,0,1,1.295,1.294,1.3,1.3,0,0,1-1.295,1.295c-4.515,0-6.747,1.565-9.107,3.216-2.467,1.729-5.257,3.692-10.591,3.692S16296.094-6708.465,16293.627-6710.194Z" transform="translate(-15456.502 6716.499)" fill="#e4dace" stroke="rgba(0,0,0,0)" stroke-miterlimit="10" stroke-width="1"/>
</svg>
