<svg xmlns="http://www.w3.org/2000/svg" width="99.807" height="99.578" viewBox="0 0 99.807 99.578"><g transform="translate(-910.096 -1386.25)"><rect width="5.224" height="0.632" transform="matrix(0.866, -0.5, 0.5, 0.866, 916.625, 1460.687)" fill="#e2dccf"/><rect width="0.632" height="5.558" transform="translate(998.574 1458.587) rotate(-59.998)" fill="#e2dccf"/><rect width="0.632" height="5.662" transform="translate(959.733 1386.25)" fill="#e2dccf"/><path d="M304.68,10.012a2.241,2.241,0,0,0,1.178-.645,2.73,2.73,0,0,0,.661-1.29,2.728,2.728,0,0,0-.01-1.453,2.246,2.246,0,0,0-.764-1.1,3.62,3.62,0,0,0-1.456-.665l-1.433-.34-1.208,5.094,1.432.34a3.625,3.625,0,0,0,1.6.059m-1.207-4.575.753.179a2.2,2.2,0,0,1,.958.465,1.67,1.67,0,0,1,.515.788,1.933,1.933,0,0,1,.008,1.016,1.927,1.927,0,0,1-.463.9,1.66,1.66,0,0,1-.815.477,2.2,2.2,0,0,1-1.064-.014l-.753-.179Z" transform="translate(666.691 1382.604)" fill="#e2dccf"/><path d="M336.632,18.23l.649.256a3.609,3.609,0,0,0,.515.162l.1,2.031.811.32-.169-2.3a1.523,1.523,0,0,0,.788-.313,1.668,1.668,0,0,0,.517-.722,1.563,1.563,0,0,0-.029-1.373,2.266,2.266,0,0,0-1.233-.968l-1.454-.574-1.92,4.87.755.3Zm.982-2.492.628.248q1.186.467.829,1.371t-1.539.429l-.628-.247Z" transform="translate(639.607 1374.349)" fill="#e2dccf"/><rect width="5.235" height="0.812" transform="translate(980.312 1396.355) rotate(-62.417)" fill="#e2dccf"/><path d="M379.848,42.8l2.087-3.1.793,2.682L381.635,44l.668.449,2.92-4.344-.667-.449-1.274,1.9L382.2,37.96l-.057-.038-2.971,4.42Z" transform="translate(604.134 1355.65)" fill="#e2dccf"/><path d="M406.5,64.2l1.711-1.91-.1,3.353.763.683.07-3.512,3.389-.417-.746-.668-3.305.482,1.712-1.91-.6-.541-3.493,3.9Z" transform="translate(582.57 1338.026)" fill="#e2dccf"/><path d="M442.7,100.333l3.587-2.69.924,1.232.6-.451-2.331-3.108-.6.451L445.8,97l-3.587,2.691Z" transform="translate(553.265 1309.338)" fill="#e2dccf"/><path d="M459.272,127.906a2.533,2.533,0,0,0-.381,1.328,3.167,3.167,0,0,0,1.386,2.537,2.514,2.514,0,0,0,1.322.393,3.068,3.068,0,0,0,2.507-1.37,2.516,2.516,0,0,0,.379-1.323,3.166,3.166,0,0,0-1.386-2.536,2.544,2.544,0,0,0-1.32-.4,3.041,3.041,0,0,0-2.507,1.37m2.5-.537a1.8,1.8,0,0,1,.94.273,2.158,2.158,0,0,1,.967,1.771,1.773,1.773,0,0,1-.28.935,2.269,2.269,0,0,1-1.8.986,1.776,1.776,0,0,1-.939-.27,2.159,2.159,0,0,1-.968-1.771,1.8,1.8,0,0,1,.278-.939,2.233,2.233,0,0,1,1.8-.986" transform="translate(539.809 1284.146)" fill="#e2dccf"/><path d="M476.465,165.8a2.568,2.568,0,0,0-.6,1.249A2.908,2.908,0,0,0,476,168.53a2.757,2.757,0,0,0,.75,1.186,2.186,2.186,0,0,0,1.157.54,3.015,3.015,0,0,0,1.439-.166c.072-.024.138-.049.2-.072s.122-.049.183-.075l-.914-2.654-.674.232.637,1.851-.014,0a1.53,1.53,0,0,1-.841.061,1.485,1.485,0,0,1-.715-.388,1.9,1.9,0,0,1-.474-.772,1.976,1.976,0,0,1-.088-1.037,1.827,1.827,0,0,1,.435-.88,2.041,2.041,0,0,1,.883-.569,1.969,1.969,0,0,1,1.069-.087,1.817,1.817,0,0,1,.893.483,2.421,2.421,0,0,1,.6.978,3.151,3.151,0,0,1,.183,1.325l.71-.245a2.314,2.314,0,0,0,0-.633,3.511,3.511,0,0,0-.168-.72,3.3,3.3,0,0,0-.829-1.348,2.535,2.535,0,0,0-1.243-.663,2.753,2.753,0,0,0-1.483.122,2.8,2.8,0,0,0-1.229.8" transform="translate(526.144 1253.246)" fill="#e2dccf"/><path d="M484.932,207.278l.739-.137-.494-2.663,1.067-.2.413,2.223.738-.137-.413-2.223,1.865-.346.359,1.932.738-.137-.507-2.73-5.147.956Z" transform="translate(519.314 1222.558)" fill="#e2dccf"/><path d="M493.606,234.2l-4.476.266.048.8,4.476-.266.091,1.537.75-.044-.23-3.878-.75.044Z" transform="translate(515.408 1198.543)" fill="#e2dccf"/><path d="M488.6,266.336l1.931.119-.133,2.151-1.931-.119-.05.8,5.226.322.049-.8-2.537-.156.132-2.151,2.537.157.05-.81-5.225-.322Z" transform="translate(515.979 1171.992)" fill="#e2dccf"/><path d="M482.564,301.715l.734.156.56-2.65,1.061.224-.467,2.212.735.155.467-2.212,1.856.392-.406,1.922.735.155.574-2.717-5.122-1.081Z" transform="translate(520.707 1145.569)" fill="#e2dccf"/><path d="M473.829,328.017l1.709.6-.232.658a3.6,3.6,0,0,0-.144.52l-2.026.176-.291.823,2.293-.251a1.53,1.53,0,0,0,.341.776,1.673,1.673,0,0,0,.74.491,1.568,1.568,0,0,0,1.372-.078,2.269,2.269,0,0,0,.923-1.267l.521-1.473-4.935-1.746Zm2.185,1.489.225-.637,1.824.646-.226.637q-.425,1.2-1.341.878t-.483-1.523" transform="translate(528.55 1122.184)" fill="#e2dccf"/><path d="M14.386,316.156l-.718.22.793,2.59-1.038.318-.662-2.162-.719.22.663,2.162-1.813.556-.576-1.879-.718.22.814,2.655,5.005-1.533Z" transform="translate(902.352 1131.138)" fill="#e2dccf"/><path d="M7.424,279.719l-1.051-.356-.348-2.586.922-.6-.122-.9-4.932,3.336.011.075L7.543,280.6Zm-3.946-1.275,1.865-1.216.253,1.88Z" transform="translate(908.569 1164.125)" fill="#e2dccf"/><path d="M.776,246.575l4.484.072.013-.8-4.484-.072.025-1.54-.751-.012L0,248.1l.751.012Z" transform="translate(910.097 1189.185)" fill="#e2dccf"/><path d="M6.713,187.577l4.347,1.1.2-.779-4.346-1.1.378-1.493-.728-.185-.955,3.765.728.185Z" transform="translate(905.573 1236.873)" fill="#e2dccf"/><path d="M20.233,150.306a3.04,3.04,0,0,0,2.619,1.141,2.532,2.532,0,0,0,1.283-.513,3.171,3.171,0,0,0,1.155-2.65,2.512,2.512,0,0,0-.5-1.285,3.063,3.063,0,0,0-2.619-1.141,2.51,2.51,0,0,0-1.278.511,3.167,3.167,0,0,0-1.155,2.65,2.542,2.542,0,0,0,.494,1.287m.473-2.443a2,2,0,0,1,.633-.825,1.773,1.773,0,0,1,.911-.352,2.266,2.266,0,0,1,1.884.821,1.769,1.769,0,0,1,.362.907,2.153,2.153,0,0,1-.806,1.85,1.8,1.8,0,0,1-.913.356,2.235,2.235,0,0,1-1.884-.822,1.8,1.8,0,0,1-.361-.91,2.01,2.01,0,0,1,.174-1.025" transform="translate(894.179 1268.565)" fill="#e2dccf"/><path d="M43.5,111.037a2.8,2.8,0,0,0,1.377.506,2.565,2.565,0,0,0,1.358-.269,2.893,2.893,0,0,0,1.1-.993,2.754,2.754,0,0,0,.5-1.31,2.188,2.188,0,0,0-.259-1.25,3.013,3.013,0,0,0-.994-1.054c-.063-.043-.122-.082-.178-.117s-.112-.069-.169-.1l-1.581,2.32.589.4,1.1-1.618.013.009a1.524,1.524,0,0,1,.552.637,1.48,1.48,0,0,1,.117.805,1.9,1.9,0,0,1-.335.842,1.981,1.981,0,0,1-.778.691,1.83,1.83,0,0,1-.966.178,2.041,2.041,0,0,1-.985-.368,1.967,1.967,0,0,1-.709-.8,1.817,1.817,0,0,1-.147-1,2.423,2.423,0,0,1,.427-1.064,3.146,3.146,0,0,1,.951-.94l-.62-.423a2.3,2.3,0,0,0-.507.38,3.538,3.538,0,0,0-.477.565,3.306,3.306,0,0,0-.584,1.47,2.542,2.542,0,0,0,.212,1.394,2.753,2.753,0,0,0,.984,1.116" transform="translate(875.975 1300.626)" fill="#e2dccf"/><path d="M72.688,77.935l-.542-.521L70.27,79.368l-.783-.752,1.566-1.63-.542-.521L68.946,78.1l-1.368-1.314,1.361-1.417-.542-.521-1.923,2,3.776,3.626Z" transform="translate(856.458 1325.855)" fill="#e2dccf"/><path d="M93.38,50.385l2.754,3.539.634-.494-2.754-3.538,1.215-.946-.461-.593L91.7,50.738l.461.593Z" transform="translate(836.099 1347.233)" fill="#e2dccf"/><path d="M127.477,33.905l-.94-1.691,1.883-1.047.94,1.691.7-.391-2.543-4.576-.7.391,1.235,2.222-1.884,1.047-1.235-2.222-.71.394,2.544,4.576Z" transform="translate(809.858 1363.744)" fill="#e2dccf"/><path d="M166.459,18.462l-.261-.7-2.54.94-.376-1.018,2.12-.785-.26-.7-2.12.785-.659-1.779,1.843-.682-.26-.7-2.6.964,1.817,4.909Z" transform="translate(779.908 1375.106)" fill="#e2dccf"/><path d="M199.692,10.344l-.367-1.776.684-.141a3.557,3.557,0,0,0,.52-.146l1.2,1.643.855-.176-1.4-1.834a1.525,1.525,0,0,0,.488-.693,1.674,1.674,0,0,0,.038-.887,1.567,1.567,0,0,0-.776-1.134,2.267,2.267,0,0,0-1.562-.135l-1.531.316,1.058,5.127Zm-.246-4.535q1.249-.258,1.445.693t-1.054,1.2l-.662.136-.391-1.895Z" transform="translate(750.457 1382.222)" fill="#e2dccf"/><path d="M61.976,411.342,56.23,412.9l.589.664,1.071-.291,1.734,1.951-.43,1.012.6.68,2.228-5.522Zm-2.039,3.131-1.26-1.418,2.128-.632Z" transform="translate(864.724 1054.33)" fill="#e2dccf"/><path d="M88.834,429.432l-3.386,3.992,2.54,2.154.486-.573-1.921-1.629,2.9-3.419Z" transform="translate(841.147 1039.733)" fill="#e2dccf"/><path d="M113.527,447.4l-2.863,4.383,2.788,1.822.411-.629-2.109-1.377,2.453-3.754Z" transform="translate(820.8 1025.231)" fill="#e2dccf"/><path d="M159.061,470.97a3.625,3.625,0,0,0-1.348-.863l-1.37-.538-1.913,4.874,1.37.537a3.615,3.615,0,0,0,1.576.284,2.244,2.244,0,0,0,1.257-.472,3.05,3.05,0,0,0,1.03-2.624,2.25,2.25,0,0,0-.6-1.2m-.37,2.332a1.934,1.934,0,0,1-.585.826,1.668,1.668,0,0,1-.874.358,2.209,2.209,0,0,1-1.052-.164l-.72-.283,1.364-3.475.721.283a2.2,2.2,0,0,1,.883.6,1.672,1.672,0,0,1,.4.853,1.928,1.928,0,0,1-.134,1.007" transform="translate(785.484 1007.347)" fill="#e2dccf"/><path d="M190.232,482.856l-3.791,4.592.864.2.706-.856,2.541.593.232,1.075.887.207-1.367-5.8Zm-1.706,3.3,1.374-1.744.473,2.175Z" transform="translate(759.654 996.624)" fill="#e2dccf"/><path d="M226.6,489.517l-1.157-2.223-.974-.094,1.642,3.04-.227,2.356.8.077.227-2.356,2.081-2.68-.922-.089Z" transform="translate(728.965 993.119)" fill="#e2dccf"/><path d="M279.453,490.536l-.111-.973-.053.006-.848,1.2a6.341,6.341,0,0,0-.584-.67,4.053,4.053,0,0,0-.584-.471,1.18,1.18,0,0,0,.378-.467,1.1,1.1,0,0,0,.1-.6,1.143,1.143,0,0,0-.245-.606,1.246,1.246,0,0,0-.52-.376,1.457,1.457,0,0,0-.708-.079,1.494,1.494,0,0,0-.668.233,1.22,1.22,0,0,0-.426.476,1.1,1.1,0,0,0-.1.627,1.059,1.059,0,0,0,.2.519.936.936,0,0,0,.412.327,1.832,1.832,0,0,0-.688.728,1.7,1.7,0,0,0-.175,1.005,1.759,1.759,0,0,0,.324.861,1.588,1.588,0,0,0,.687.536,1.864,1.864,0,0,0,.934.115,2.028,2.028,0,0,0,.887-.323,2.473,2.473,0,0,0,.706-.707l.506.69.784-.09-.806-1.168Zm-3.483-2.107a.578.578,0,0,1,.807-.092.587.587,0,0,1,.089.811.563.563,0,0,1-.8.095.552.552,0,0,1-.212-.388.562.562,0,0,1,.115-.425m1.453,3.461a1.342,1.342,0,0,1-.648.273.983.983,0,0,1-.772-.206,1.034,1.034,0,0,1-.364-.711,1.155,1.155,0,0,1,.184-.8,1.317,1.317,0,0,1,.675-.508,3.254,3.254,0,0,1,.718.533,6.736,6.736,0,0,1,.713.83,1.762,1.762,0,0,1-.506.585" transform="translate(688.345 992.886)" fill="#e2dccf"/><path d="M325.992,474.293l.732,2.163-3.506-1.321-.064.022,1.706,5.045.769-.26-1.2-3.543,2.612,1,.627,1.854.762-.258-1.676-4.959Z" transform="translate(649.339 1003.741)" fill="#e2dccf"/><rect width="0.812" height="5.235" transform="translate(978.542 1476.707) rotate(-25.009)" fill="#e2dccf"/><path d="M379.516,451.884c-.041-.065-.079-.124-.116-.178s-.075-.108-.114-.161l-2.38,1.488.378.6,1.659-1.038.008.013a1.528,1.528,0,0,1,.249.806,1.484,1.484,0,0,1-.216.784,1.907,1.907,0,0,1-.645.636,1.978,1.978,0,0,1-.99.32,1.834,1.834,0,0,1-.956-.226,2.04,2.04,0,0,1-.753-.732,1.974,1.974,0,0,1-.326-1.023,1.817,1.817,0,0,1,.27-.978,2.425,2.425,0,0,1,.818-.8,3.151,3.151,0,0,1,1.25-.477l-.4-.637a2.328,2.328,0,0,0-.617.144,3.538,3.538,0,0,0-.664.326,3.3,3.3,0,0,0-1.126,1.111,2.544,2.544,0,0,0-.366,1.361,2.755,2.755,0,0,0,.452,1.417,2.794,2.794,0,0,0,1.057,1.018,2.559,2.559,0,0,0,1.351.3,2.9,2.9,0,0,0,1.409-.465,2.758,2.758,0,0,0,.987-1,2.189,2.189,0,0,0,.266-1.249,3.02,3.02,0,0,0-.486-1.365" transform="translate(607.922 1022.908)" fill="#e2dccf"/><path d="M404.769,427.071l1.664,1.921L404.8,430.4l-1.664-1.921-.613.532,3.427,3.957.614-.532-1.267-1.462,1.628-1.411,1.267,1.462.608-.527-3.428-3.957Z" transform="translate(585.29 1042.063)" fill="#e2dccf"/><path d="M428.594,403.817l-.565-.5-2.563,2.92.565.5,1.016-1.158,3.37,2.957.53-.6-3.37-2.957Z" transform="translate(566.779 1060.802)" fill="#e2dccf"/></g></svg>